<?xml version="1.0" encoding="UTF-8"?>
<svg width="130px" height="37px" viewBox="0 0 130 37" version="1.1" xmlns="http://www.w3.org/2000/svg" xmlns:xlink="http://www.w3.org/1999/xlink">
    <!-- Generator: Sketch 49 (51002) - http://www.bohemiancoding.com/sketch -->
    <title>Logo</title>
    <desc>Created with Sketch.</desc>
    <defs></defs>
    <g id="Courses" stroke="none" stroke-width="1" fill="none" fill-rule="evenodd">
        <g id="Profile-billing-lifter" transform="translate(-24.000000, -17.000000)">
            <g id="Group-13-Copy-2">
                <g id="Logo" transform="translate(24.000000, 16.000000)">
                    <g id="Page-1">
                        <path d="M129.991883,22.0250054 C129.963515,22.1721691 129.942889,22.3212684 129.905568,22.4661336 C129.626363,23.5502335 128.948974,24.1609659 127.822534,24.3132105 C126.318355,24.5164452 124.810849,24.5397325 123.304311,24.3320823 C122.345963,24.2000402 121.746239,23.6765899 121.524374,22.7385649 C121.425842,22.3220547 121.398865,21.8886083 121.335173,21.4329633 L123.593135,21.4329633 C123.630697,21.6730343 123.662936,21.9098391 123.705579,22.1448292 C123.774231,22.5232329 124.006136,22.7609449 124.378008,22.830081 C125.247138,22.991701 126.122318,22.9939995 126.992175,22.8438114 C127.316866,22.7877404 127.591052,22.5892842 127.642768,22.2470514 C127.697508,21.8851001 127.721158,21.5057286 127.674523,21.1448055 C127.631517,20.8119482 127.326302,20.6563164 127.020664,20.5969186 C126.646918,20.5242743 126.265127,20.4820547 125.884848,20.4560455 C125.161429,20.4065675 124.434865,20.3973131 123.713019,20.332774 C123.336067,20.2990225 122.959901,20.2056918 122.594925,20.099417 C122.040687,19.9379179 121.678857,19.5520744 121.532419,18.99953 C121.336745,18.2610501 121.320112,17.5085373 121.443383,16.7532421 C121.6096,15.7343466 122.271262,15.2305544 123.229852,15.0571395 C124.529284,14.8220284 125.842023,14.8635826 127.14696,14.9700994 C127.624985,15.0091132 128.114563,15.1735156 128.552303,15.3795327 C129.321994,15.7418469 129.749816,16.6665649 129.624185,17.5404137 L127.43046,17.5404137 C127.419391,17.5266832 127.398705,17.5129528 127.39689,17.4971053 C127.301382,16.6632381 127.087441,16.4500836 126.241597,16.448269 C125.620098,16.4469988 124.995394,16.4704676 124.377887,16.5365794 C123.932282,16.5843032 123.719128,16.9217575 123.639346,17.3439535 C123.637471,17.3538128 123.637653,17.364035 123.636382,17.3740153 C123.522305,18.2905675 123.769937,18.5804794 124.731733,18.6404821 C125.707078,18.7013315 126.685326,18.7280665 127.657587,18.820006 C128.542686,18.9037194 129.34873,19.1945386 129.719693,20.1031671 C129.865103,20.4593723 129.904298,20.8588857 129.991883,21.2386806 L129.991883,22.0250054 Z" id="Fill-1" fill="#24B2FA"></path>
                        <path d="M40.5782017,16.5695082 C41.9649762,16.5695082 43.3138861,16.5705365 44.6627356,16.5676331 C44.7725186,16.5673912 44.8837533,16.5473097 44.9918427,16.5246272 C45.4917034,16.4198646 45.829944,16.1412636 45.9116613,15.6179947 C45.9549091,15.3413294 45.9889631,15.0600671 45.9910801,14.7806193 C46.0005765,13.5439724 45.657013,13.2012558 44.4209709,13.1985943 C43.2325318,13.1960539 42.0441531,13.1977475 40.8557139,13.1987153 C40.7681899,13.1987758 40.6807264,13.2084536 40.5782017,13.2145628 L40.5782017,16.5695082 Z M40.5800768,22.1462446 L40.926967,22.1462446 C42.0445765,22.1462446 43.1621859,22.1499947 44.2797349,22.1437646 C44.5909986,22.142071 44.9049236,22.1314859 45.2126185,22.0890243 C45.7902648,22.0091821 46.1748986,21.6800145 46.2433089,21.1464629 C46.3002267,20.7023708 46.3031905,20.2450927 46.2733707,19.797432 C46.2188118,18.9788679 45.8667803,18.5953228 45.0415022,18.5699185 C43.5735548,18.5246746 42.1035508,18.5450585 40.6343937,18.5395542 C40.6192116,18.5394938 40.603969,18.5608455 40.5800768,18.5786285 L40.5800768,22.1462446 Z M38.0000242,24.3527929 L38.0000242,11.0212005 C38.0662569,11.0130953 38.1229933,10.9999698 38.1797901,11.0000302 C40.5884239,11.003357 42.9972392,10.9934372 45.4055101,11.0238014 C45.9106935,11.0301525 46.4329341,11.12681 46.9141044,11.2837725 C47.8216442,11.579854 48.2924108,12.2852479 48.4601399,13.1995621 C48.601013,13.967378 48.6162556,14.7391861 48.5015732,15.5148652 C48.3623937,16.456096 47.8446291,17.0678567 46.9466462,17.3661762 C46.8712195,17.3912176 46.7964581,17.4183156 46.7218782,17.445716 C46.716132,17.447833 46.7141964,17.4601118 46.7051235,17.4785602 C46.9183989,17.5350546 47.1324003,17.5821736 47.3402924,17.6485273 C48.0809499,17.8847272 48.5613339,18.3822893 48.7318454,19.1386732 C48.9699203,20.1951913 48.9609078,21.2609638 48.7005133,22.3113728 C48.4046738,23.5047114 47.5542333,24.0866522 46.3934364,24.262426 C45.9571471,24.3285378 45.5103332,24.3473491 45.0681767,24.3489822 C42.8106383,24.3572084 40.5530393,24.3527929 38.2955009,24.3527929 C38.2062227,24.3528534 38.1168842,24.3527929 38.0000242,24.3527929 Z" id="Fill-3" fill="#FFFFFF"></path>
                        <g id="Group-3">
                            <g transform="translate(0.000000, 0.115600)">
                                <path d="M29.68035,0.884618367 C29.68035,0.884618367 29.6811,16.4617 29.6791,24.1337 C29.6781,26.7707 27.8051,29.0217 25.2221,29.4927 C24.9041,29.5507 24.5801,29.5717 24.2261,29.6127 L24.2261,33.2797 L24.2261,36.9997 C23.9881,36.8207 23.7781,36.6647 23.5701,36.5047 C21.8531,35.1817 14.7171,29.5827 14.7171,29.5827 L0.0011,29.5817 C0.0011,29.5817 -0.0019,13.9967 0.0021,6.3177 C0.0031,3.7317 1.8551,1.4787 4.3821,0.9847 C4.7181,0.9187 5.0661,0.8887 5.4081,0.8887 C13.4151,0.8837 29.68035,0.884618367 29.68035,0.884618367 Z" id="Fill-1" fill="#24B2FA"></path>
                                <path d="M3.3471,26.4567 L3.3471,24.6557 L3.6151,24.6557 C10.3311,24.6557 17.0471,24.6557 23.7631,24.6557 C24.5531,24.6557 25.1241,24.2707 25.3361,23.5917 C25.3711,23.4807 25.4001,23.3637 25.4011,23.2487 C25.4071,22.4767 25.4051,21.7037 25.4041,20.9317 C25.4041,20.8937 25.3961,20.8567 25.3901,20.7977 C24.7361,21.0377 24.0681,20.9507 23.4081,20.9547 C21.7391,20.9637 20.0701,20.9577 18.4011,20.9567 C17.2401,20.9567 16.2591,20.2117 15.9571,19.0887 C15.9011,18.8777 15.8761,18.6517 15.8721,18.4327 C15.8611,17.7587 15.8681,17.0837 15.8681,16.4097 L15.8681,16.1807 L13.8121,16.1807 C13.8121,16.2567 13.8121,16.3267 13.8121,16.3967 C13.8121,17.0847 13.8121,17.7717 13.8121,18.4597 C13.8121,19.7707 12.9211,20.8077 11.6261,20.9997 C11.5051,21.0177 11.3791,21.0117 11.2551,21.0117 C9.1161,21.0107 6.9781,21.0137 4.8391,21.0067 C3.7321,21.0027 2.6541,20.0327 2.5161,18.9287 C2.4921,18.7347 2.4771,18.5387 2.4771,18.3427 C2.4751,14.5727 2.4751,10.8017 2.4761,7.0307 C2.4761,5.5017 3.5441,4.2607 5.0491,4.0437 C5.1651,4.0267 5.2841,4.0337 5.4011,4.0337 C12.4631,4.0327 19.5251,4.0337 26.5861,4.0337 L26.8071,4.0337 L26.8071,5.8337 L26.5301,5.8337 C19.6321,5.8337 12.7331,5.8377 5.8341,5.8287 C5.0751,5.8277 4.4341,6.3257 4.2981,7.0547 C4.2871,7.1117 4.2781,7.1707 4.2781,7.2287 C4.2761,8.0407 4.2761,8.8517 4.2761,9.6637 C4.2761,9.6957 4.2821,9.7277 4.2841,9.7527 C5.4531,9.5517 6.6241,9.6757 7.7911,9.6547 C8.9651,9.6337 10.1391,9.6717 11.3121,9.6447 C12.5471,9.6167 13.7101,10.6327 13.7821,11.8817 C13.8241,12.5987 13.8041,13.3197 13.8121,14.0387 C13.8131,14.1367 13.8121,14.2337 13.8121,14.3477 L15.8681,14.3477 C15.8681,14.2717 15.8681,14.2017 15.8681,14.1317 C15.8681,13.4707 15.8681,12.8097 15.8681,12.1487 C15.8691,10.9097 16.6141,9.9447 17.8111,9.6427 C17.9671,9.6037 18.1311,9.5787 18.2911,9.5787 C20.4501,9.5747 22.6081,9.5727 24.7661,9.5767 C25.9451,9.5787 27.0021,10.5097 27.1661,11.6817 C27.1891,11.8427 27.2031,12.0067 27.2031,12.1687 C27.2051,15.9267 27.2051,19.6847 27.2051,23.4417 C27.2051,24.9567 26.1551,26.1927 24.6681,26.4207 C24.4761,26.4497 24.2791,26.4557 24.0851,26.4557 C17.2571,26.4567 10.4301,26.4567 3.6031,26.4567 L3.3471,26.4567 Z M21.5471,11.3827 C20.5501,11.3827 19.5531,11.3817 18.5561,11.3827 C18.0491,11.3837 17.6641,11.7617 17.6631,12.2687 C17.6601,14.2637 17.6601,16.2597 17.6631,18.2547 C17.6641,18.7737 18.0481,19.1547 18.5671,19.1557 C20.5481,19.1577 22.5291,19.1577 24.5111,19.1557 C25.0291,19.1557 25.4051,18.7727 25.4051,18.2517 C25.4061,16.2567 25.4061,14.2607 25.4051,12.2657 C25.4041,11.7477 25.0381,11.3837 24.5191,11.3827 C23.5281,11.3817 22.5381,11.3827 21.5471,11.3827 Z M8.1338,19.2028 C9.1578,19.2028 10.1808,19.2098 11.2048,19.1998 C11.5988,19.1958 11.9218,18.9218 11.9808,18.5328 C12.0248,18.2448 12.0168,17.9468 12.0178,17.6538 C12.0198,15.8868 12.0198,14.1188 12.0178,12.3508 C12.0178,11.8318 11.6628,11.4528 11.1668,11.4528 C9.1518,11.4498 7.1368,11.4498 5.1218,11.4528 C4.6358,11.4538 4.2768,11.8238 4.2758,12.3128 C4.2748,14.3228 4.2748,16.3328 4.2768,18.3428 C4.2768,18.8168 4.6138,19.1928 5.0828,19.1988 C6.0998,19.2118 7.1168,19.2028 8.1338,19.2028 Z" id="Combined-Shape" fill="#3E474E"></path>
                            </g>
                        </g>
                        <path d="M88.8024121,18.0956255 C88.7158559,17.4304552 88.3957007,16.9194651 87.6985331,16.7387918 C87.0441294,16.5691876 86.3804713,16.5691272 85.7255232,16.7135085 C85.306896,16.8058109 84.9901281,17.0806617 84.8902648,17.5034625 C84.7802398,17.9692692 84.6850341,18.450258 84.6778966,18.9261055 C84.6657993,19.7386209 84.6922924,20.5555519 84.7688684,21.3643776 C84.833226,22.0435808 85.2173155,22.5640068 85.9162977,22.6635072 C86.4631563,22.7413533 87.038988,22.7106867 87.5900807,22.6379819 C88.230875,22.5534217 88.6418204,22.1331613 88.7467645,21.4897057 C88.8417888,20.9069181 88.8723345,18.6329273 88.8024121,18.0956255 M88.9736494,16.3505289 C88.9521162,15.9064973 88.9312484,15.476922 88.9095942,15.0298057 L91.1492892,15.0298057 C91.1492892,15.1405565 91.1492892,15.2470128 91.1492892,15.3535295 C91.1492892,18.4269102 91.1653181,21.5004723 91.1366475,24.573611 C91.1304174,25.2394467 91.0148881,25.9161699 90.8582885,26.5658556 C90.6419282,27.4635361 90.003372,28.0263027 89.1287974,28.2440542 C87.6547408,28.6110259 86.1541912,28.6501607 84.6716665,28.3071416 C83.4561899,28.0259398 82.8495705,27.2151179 82.8041452,25.9653454 C82.7965844,25.7576952 82.8030564,25.5495611 82.8030564,25.3261844 L84.873873,25.3261844 C84.9087737,25.5413954 84.9421623,25.7558201 84.9786356,25.9697609 C85.0573286,26.4318175 85.3669591,26.7102369 85.7967158,26.7304394 C86.4952142,26.7632231 87.2009105,26.7395124 87.8978362,26.6763645 C88.4964713,26.6221081 88.8591485,26.2045696 88.8976784,25.6336978 C88.9541728,24.7971692 88.9122556,23.9540476 88.9122556,23.14002 C88.7257757,23.3542632 88.5368158,23.6101212 88.3090235,23.8246064 C87.8953562,24.2142001 87.3656153,24.3454559 86.8195429,24.4132008 C85.9819256,24.5171166 85.1434009,24.497519 84.3358454,24.2517623 C83.1947671,23.9044487 82.6887369,23.0182606 82.535706,21.9081515 C82.3284792,20.4041541 82.3386409,18.894713 82.5682477,17.3933165 C82.6205081,17.0513862 82.7488605,16.7146577 82.8844713,16.3934138 C83.1512773,15.7616321 83.6536179,15.3718569 84.2916902,15.1594888 C85.2914114,14.8267524 86.309823,14.8098767 87.3267224,15.0595045 C87.9786462,15.2195519 88.4898178,15.5938425 88.8158401,16.1962882 C88.8439663,16.2483066 88.8804397,16.295849 88.9145541,16.3443592 C88.9180623,16.3492586 88.9323371,16.3465972 88.9736494,16.3505289" id="Fill-5" fill="#24B2FA"></path>
                        <path d="M112.476462,11.012436 L114.682345,11.012436 L114.682345,18.6023453 C115.027602,18.6885386 115.263076,18.6370041 115.472359,18.3354183 C116.20104,17.2857352 116.960509,16.2574643 117.701288,15.2161283 C117.804296,15.0713236 117.909966,15.0056352 118.094571,15.0084781 C118.836499,15.0199101 119.578668,15.0131961 120.387857,15.0131961 C119.266195,16.5060639 118.181732,17.9493933 117.086503,19.4071185 C118.393495,21.0325123 119.697161,22.653793 121.042503,24.3268502 C120.902597,24.3381612 120.812049,24.3516497 120.72144,24.3518917 C120.025906,24.3536458 119.33019,24.3445728 118.634837,24.3577588 C118.418658,24.3618719 118.285587,24.287292 118.159957,24.1162966 C117.271954,22.9081993 116.364959,21.713893 115.488146,20.4978114 C115.276927,20.2048752 115.053732,20.1135406 114.695894,20.2214485 L114.695894,24.3323545 L112.476462,24.3323545 L112.476462,11.012436 Z" id="Fill-8" fill="#24B2FA"></path>
                        <path d="M73.7042625,11.0130348 L75.9089357,11.0130348 L75.9089357,18.6066338 C76.2352,18.6734714 76.4600284,18.6553254 76.6696142,18.3525299 C77.3965412,17.3021815 78.1658693,16.2812899 78.9061034,15.239954 C79.0336089,15.0604905 79.1671027,15.0046614 79.3785636,15.0083511 C80.1002888,15.0209928 80.8223769,15.01319 81.6053749,15.01319 C80.4854669,16.5021262 79.4005202,17.9445483 78.3016615,19.4054793 C79.6104689,21.0339579 80.9121993,22.6536055 82.2485281,24.3163195 C82.1153972,24.3336792 82.0422085,24.3512807 81.9690199,24.3515227 C81.2433026,24.3535792 80.5174038,24.361382 79.7921099,24.3447482 C79.6642414,24.3417844 79.4936089,24.267265 79.4190895,24.168309 C78.4628581,22.898334 77.5163045,21.6210401 76.57834,20.3375161 C76.3928884,20.0837751 76.1709633,20.2075306 75.923271,20.1960986 L75.923271,24.3327719 L73.7042625,24.3327719 L73.7042625,11.0130348 Z" id="Fill-10" fill="#FFFFFF"></path>
                        <path d="M104.674916,18.6461738 L108.921675,18.6461738 C108.921675,18.0821975 108.843829,17.7992416 108.76447,17.3983369 C108.684931,16.9965249 108.415645,16.713448 108.000586,16.6977215 C107.229564,16.6685065 106.454793,16.6617925 105.685102,16.706613 C105.249236,16.7320174 104.901075,16.9870285 104.81585,17.456283 C104.74629,17.8391627 104.674916,18.1578057 104.674916,18.6461738 M111.127316,20.1164802 L104.662033,20.1164802 C104.674916,20.9855506 104.747379,21.2854427 104.853351,21.8419792 C104.945291,22.3248431 105.323029,22.6241304 105.792344,22.6567932 C106.540986,22.7088721 107.299487,22.7196387 108.046556,22.6589707 C108.599403,22.6140292 108.800279,22.1523356 108.875524,21.6490877 C108.887319,21.5700318 108.891311,21.4898267 108.900807,21.3905078 L111.093202,21.3905078 C111.237643,22.9472494 110.593462,24.2099661 108.760236,24.3744289 C107.47139,24.4900792 106.188531,24.5085275 104.905672,24.3190838 C103.768405,24.1511127 102.979721,23.424972 102.703177,22.2526222 C102.408668,21.0041199 102.420281,19.7349917 102.510043,18.4672547 C102.544702,17.9780397 102.617891,17.4847116 102.738864,17.0099529 C103.019279,15.9097636 103.782196,15.293043 104.867384,15.0839411 C106.234682,14.8205223 107.606335,14.8160463 108.972907,15.1217452 C110.010674,15.353832 110.631871,15.9860976 110.890995,17.0169694 C111.144494,18.0257031 111.120662,19.0465341 111.127316,20.1164802" id="Fill-12" fill="#24B2FA"></path>
                        <path d="M98.8915398,18.6537709 C98.8915398,18.4371687 98.8977699,18.2462732 98.8896647,18.0559826 C98.8827692,17.8953909 98.8688573,17.7338314 98.8415174,17.5755382 C98.7467955,17.0276513 98.4888205,16.7218919 97.9357922,16.6885034 C97.1966469,16.6439248 96.4513925,16.6686638 95.7103116,16.6998748 C95.3654175,16.7143916 95.0654648,16.8951858 94.9209625,17.2273778 C94.7246233,17.6786072 94.7310953,18.1585678 94.759403,18.6537709 L98.8915398,18.6537709 Z M101.205391,20.1073226 C100.989636,20.1073226 100.870538,20.1072621 100.7515,20.1072621 C98.8572439,20.1073226 96.962927,20.1112542 95.0686706,20.1024231 C94.8271479,20.1012739 94.7156713,20.1534738 94.7430112,20.4164087 C94.7865615,20.8355198 94.7912189,21.2591674 94.8467456,21.6763429 C94.9179987,22.2116487 95.2255122,22.6008794 95.769407,22.642978 C96.5269402,22.7015895 97.2962078,22.7247558 98.051261,22.6585836 C98.5779776,22.6123719 98.8287548,22.2320326 98.8889993,21.6949728 C98.8999474,21.5969846 98.9056936,21.4984521 98.9148271,21.3885481 L101.132082,21.3885481 C101.166498,22.0175474 101.093673,22.6110412 100.822693,23.1646743 C100.406243,24.0155382 99.6394556,24.285671 98.7680868,24.3722877 C97.521762,24.4961036 96.2784615,24.5104389 95.0338909,24.3315198 C93.7718396,24.1500602 92.9480736,23.403959 92.686167,22.1557591 C92.4419224,20.991575 92.4768836,19.8121483 92.5256963,18.6351411 C92.5452334,18.1648584 92.5973123,17.690644 92.6915503,17.2298577 C92.90162,16.2023127 93.4879763,15.4774422 94.5224168,15.1899498 C95.986977,14.782936 97.4664773,14.8175947 98.9462801,15.1070832 C100.196657,15.3516302 100.810596,16.1925139 100.971913,17.3859734 C101.091253,18.2694396 101.127666,19.1640957 101.205391,20.1073226 Z" id="Fill-14" fill="#24B2FA"></path>
                        <path d="M56.1964205,21.4310398 C56.2645283,22.0644547 56.562364,22.5833686 57.2417486,22.6499037 C57.9245204,22.7168018 58.6230188,22.7008334 59.3080287,22.6432502 C59.858577,22.596978 60.1934909,22.2026059 60.2788373,21.6695987 C60.4931411,20.3313344 60.5078393,18.9880497 60.2564573,17.6508742 C60.1640944,17.1593607 59.8556131,16.8336408 59.3712976,16.7284547 C58.6273133,16.5668347 57.8738327,16.5603022 57.1296066,16.7373462 C56.6540615,16.8505165 56.3429189,17.1703692 56.2725126,17.647245 C56.0407282,18.5396026 55.9802417,20.6931648 56.1964205,21.4310398 M54.0306401,17.3311424 C54.2649044,15.8933173 55.0144534,15.2182877 56.488026,15.0194685 C57.6724126,14.8597236 58.8601865,14.8343193 60.0394922,15.0264849 C61.6977907,15.2967387 62.3906638,15.9829583 62.5885757,17.8708032 C62.7244284,19.1669083 62.7237026,20.4667032 62.5526467,21.760147 C62.5043784,22.1253041 62.4114107,22.4936066 62.277675,22.8366256 C61.9226796,23.7470688 61.1710135,24.1655145 60.260147,24.3134041 C58.9288991,24.5295829 57.5923285,24.5105901 56.257028,24.3189688 C55.0944166,24.152147 54.2747032,23.4263087 54.07165,22.2569228 C53.8778512,21.0762864 53.7422404,18.8785691 54.0306401,17.3311424" id="Fill-16" fill="#FFFFFF"></path>
                        <path d="M72.3988665,18.2711816 L70.146046,18.2711816 C70.112597,18.0329252 70.081265,17.8066451 70.0489652,17.5805465 C69.9831558,17.1200626 69.7163498,16.8149686 69.2728626,16.7220008 C68.5579119,16.5721152 67.8300776,16.5554209 67.1148245,16.7200652 C66.5462512,16.8509581 66.3401131,17.3007358 66.2482341,17.8257588 C66.0815332,18.7777562 66.0374385,20.4201467 66.2476292,21.5675156 C66.3707193,22.2397023 66.6893623,22.6496195 67.3712268,22.6884518 C68.027808,22.725893 68.6940066,22.6834314 69.349741,22.6159285 C69.7663116,22.5730435 69.9813412,22.2469002 70.0395897,21.8415195 C70.0865273,21.5145294 70.1106614,21.184273 70.1475582,20.829822 L72.3641473,20.829822 C72.3197502,21.9623716 72.3332387,23.1118575 71.2834951,23.8707214 C70.9924944,24.081033 70.6206233,24.2307371 70.2657488,24.2924334 C68.9072216,24.5286938 67.538714,24.5351658 66.1763156,24.3082204 C65.0893123,24.1271842 64.3376463,23.3648726 64.1208021,22.1743769 C63.8262327,20.5568463 63.8259908,18.9288515 64.1083419,17.3087201 C64.3240368,16.0714682 65.0878001,15.3178062 66.3046075,15.0779771 C67.6909586,14.8047595 69.0867456,14.8134091 70.4699513,15.1360442 C71.4436634,15.3632316 72.017378,15.9976747 72.226117,16.9560231 C72.3172702,17.3742874 72.3401946,17.8073105 72.3988665,18.2711816" id="Fill-18" fill="#FFFFFF"></path>
                        <polygon id="Fill-20" fill="#FFFFFF" points="50.2349112 24.32881 52.4557344 24.32881 52.4557344 11.0151216 50.2349112 11.0151216"></polygon>
                    </g>
                </g>
            </g>
        </g>
    </g>
</svg>