<?xml version="1.0" encoding="utf-8"?>
<!-- Generator: Adobe Illustrator 17.0.1, SVG Export Plug-In . SVG Version: 6.00 Build 0)  -->
<!DOCTYPE svg PUBLIC "-//W3C//DTD SVG 1.1//EN" "http://www.w3.org/Graphics/SVG/1.1/DTD/svg11.dtd">
<svg version="1.1" id="Layer_1" xmlns="http://www.w3.org/2000/svg" xmlns:xlink="http://www.w3.org/1999/xlink" x="0px" y="0px"
	 width="259.167px" height="64.667px" viewBox="-1.167 -7.5 259.167 64.667" enable-background="new -1.167 -7.5 259.167 64.667"
	 xml:space="preserve">
<g>
	
		<linearGradient id="SVGID_1_" gradientUnits="userSpaceOnUse" x1="-128.5135" y1="574.9907" x2="-128.5135" y2="339.5371" gradientTransform="matrix(1 0 0 1 168 -415)">
		<stop  offset="0" style="stop-color:#2E3E70"/>
		<stop  offset="0.38" style="stop-color:#07639F"/>
		<stop  offset="1" style="stop-color:#00AEEF"/>
	</linearGradient>
	<polygon fill="url(#SVGID_1_)" points="6.59,50.948 34.005,36.098 43.775,49.52 72.383,33.289 72.383,29.928 44.619,45.678 
		34.848,32.256 6.59,47.563 	"/>
	
		<linearGradient id="SVGID_2_" gradientUnits="userSpaceOnUse" x1="-125.767" y1="510.3263" x2="-125.767" y2="366.3313" gradientTransform="matrix(1 0 0 1 168 -415)">
		<stop  offset="0" style="stop-color:#737778"/>
		<stop  offset="0.17" style="stop-color:#8D8E90"/>
		<stop  offset="0.43" style="stop-color:#A1A3A6"/>
		<stop  offset="0.67" style="stop-color:#BFBFC2"/>
		<stop  offset="1" style="stop-color:#D4D4D7"/>
	</linearGradient>
	<polygon fill="url(#SVGID_2_)" points="47.589,41.434 47.589,2.017 36.877,2.017 36.877,31.188 45.291,42.747 	"/>
	
		<linearGradient id="SVGID_3_" gradientUnits="userSpaceOnUse" x1="-140.9105" y1="488.8455" x2="-140.9105" y2="375.6746" gradientTransform="matrix(1 0 0 1 168 -415)">
		<stop  offset="0" style="stop-color:#2E3E70"/>
		<stop  offset="0.38" style="stop-color:#07639F"/>
		<stop  offset="1" style="stop-color:#00AEEF"/>
	</linearGradient>
	<polygon fill="url(#SVGID_3_)" points="32.445,31.048 32.445,-2.482 21.734,-2.482 21.734,36.85 	"/>
	
		<linearGradient id="SVGID_4_" gradientUnits="userSpaceOnUse" x1="-156.0546" y1="507.1173" x2="-156.0546" y2="376.8926" gradientTransform="matrix(1 0 0 1 168 -415)">
		<stop  offset="0" style="stop-color:#737778"/>
		<stop  offset="0.17" style="stop-color:#8D8E90"/>
		<stop  offset="0.43" style="stop-color:#A1A3A6"/>
		<stop  offset="0.67" style="stop-color:#BFBFC2"/>
		<stop  offset="1" style="stop-color:#D4D4D7"/>
	</linearGradient>
	<polygon fill="url(#SVGID_4_)" points="17.301,39.251 17.301,7.122 6.59,7.122 6.59,45.053 	"/>
	
		<linearGradient id="SVGID_5_" gradientUnits="userSpaceOnUse" x1="-110.6224" y1="492.8366" x2="-110.6224" y2="373.7357" gradientTransform="matrix(1 0 0 1 168 -415)">
		<stop  offset="0" style="stop-color:#2E3E70"/>
		<stop  offset="0.38" style="stop-color:#07639F"/>
		<stop  offset="1" style="stop-color:#00AEEF"/>
	</linearGradient>
	<polygon fill="url(#SVGID_5_)" points="62.733,32.781 62.733,-2.482 52.022,-2.482 52.022,38.902 	"/>
	
		<linearGradient id="SVGID_6_" gradientUnits="userSpaceOnUse" x1="-98.0719" y1="464.3425" x2="-98.0719" y2="435.2821" gradientTransform="matrix(1 0 0 1 168 -415)">
		<stop  offset="0" style="stop-color:#2E3E70"/>
		<stop  offset="0.38" style="stop-color:#07639F"/>
		<stop  offset="1" style="stop-color:#00AEEF"/>
	</linearGradient>
	<polygon fill="url(#SVGID_6_)" points="75.724,29.98 70.058,39.467 69.395,33.511 64.132,30.119 	"/>
	
		<linearGradient id="SVGID_7_" gradientUnits="userSpaceOnUse" x1="42.5093" y1="566.0316" x2="42.5093" y2="358.6564" gradientTransform="matrix(1 0 0 1 168 -415)">
		<stop  offset="0" style="stop-color:#737778"/>
		<stop  offset="0.17" style="stop-color:#8D8E90"/>
		<stop  offset="0.43" style="stop-color:#A1A3A6"/>
		<stop  offset="0.67" style="stop-color:#BFBFC2"/>
		<stop  offset="1" style="stop-color:#D4D4D7"/>
	</linearGradient>
	<path fill="url(#SVGID_7_)" d="M244.021,27.793l-4.93-6.786l4.728-6.483h-3.535l-2.99,4.302l-2.97-4.302h-3.637l4.728,6.52
		l-4.93,6.748h3.535l3.192-4.549l3.172,4.549L244.021,27.793L244.021,27.793z M226.723,27.793V14.525h-3.111v13.269H226.723
		L226.723,27.793z M219.793,17.216v-2.691h-11.719v2.691h4.304v10.577h3.111V17.216H219.793L219.793,17.216z M205.022,27.793v-2.597
		h-7.678V22.41h6.668v-2.597h-6.668v-2.691h7.577v-2.597h-10.668v13.269L205.022,27.793L205.022,27.793z M189.565,27.793V14.525
		h-3.071v8.17l-6.626-8.17h-2.869v13.269h3.071v-8.434l6.849,8.434H189.565z"/>
	<path fill="#4F87E8" d="M169.682,21.197c0,0.568-0.105,1.102-0.313,1.602s-0.499,0.938-0.869,1.317
		c-0.369,0.379-0.818,0.676-1.344,0.891c-0.526,0.214-1.098,0.323-1.718,0.323c-0.633,0-1.209-0.11-1.728-0.332
		c-0.518-0.221-0.97-0.521-1.354-0.9s-0.68-0.821-0.889-1.327c-0.208-0.506-0.313-1.042-0.313-1.612V21.12
		c0-0.568,0.105-1.102,0.313-1.602c0.208-0.5,0.499-0.938,0.869-1.317s0.815-0.676,1.333-0.891c0.518-0.214,1.095-0.323,1.728-0.323
		c0.619,0,1.192,0.11,1.717,0.332s0.98,0.521,1.363,0.9c0.384,0.379,0.68,0.821,0.889,1.327c0.208,0.506,0.313,1.042,0.313,1.611
		L169.682,21.197L169.682,21.197z M172.936,21.158v-0.037c0-0.948-0.185-1.836-0.556-2.663c-0.369-0.827-0.888-1.548-1.556-2.162
		c-0.666-0.613-1.458-1.099-2.374-1.459c-0.916-0.36-1.919-0.54-3.01-0.54s-2.098,0.18-3.021,0.54
		c-0.923,0.36-1.717,0.853-2.384,1.478c-0.667,0.627-1.189,1.352-1.566,2.18c-0.378,0.827-0.565,1.715-0.565,2.663v0.037
		c0,0.948,0.185,1.835,0.555,2.663c0.37,0.827,0.889,1.548,1.556,2.162c0.667,0.613,1.458,1.099,2.374,1.459
		c0.916,0.36,1.919,0.54,3.01,0.54c1.091,0,2.098-0.18,3.021-0.54c0.923-0.36,1.717-0.853,2.384-1.478
		c0.666-0.625,1.189-1.352,1.565-2.18C172.747,22.994,172.936,22.107,172.936,21.158L172.936,21.158z M154.852,17.216v-2.691
		h-11.719v2.691h4.304v10.577h3.112V17.216H154.852L154.852,17.216z M137.394,19.206c0,0.568-0.216,1.046-0.646,1.431
		c-0.431,0.385-1.037,0.579-1.818,0.579h-2.465v-4.057h2.404c0.782,0,1.397,0.171,1.848,0.512s0.676,0.841,0.676,1.498
		L137.394,19.206L137.394,19.206z M140.547,19.15v-0.037c0-0.683-0.125-1.304-0.374-1.867c-0.25-0.562-0.606-1.045-1.071-1.45
		c-0.465-0.405-1.03-0.717-1.696-0.938c-0.666-0.222-1.424-0.332-2.273-0.332h-5.778v13.269h3.112v-3.981h2.364
		c0.795,0,1.539-0.098,2.232-0.293s1.3-0.49,1.818-0.882c0.518-0.392,0.925-0.878,1.222-1.459
		C140.398,20.596,140.547,19.921,140.547,19.15L140.547,19.15z M126.12,14.525h-3.535l-3.434,5.327l-3.374-5.327h-3.636l5.435,8.037
		v5.232h3.111v-5.288L126.12,14.525L126.12,14.525z M106.338,19.092c0,0.568-0.205,1.023-0.616,1.364
		c-0.411,0.341-0.999,0.512-1.768,0.512h-3.151v-3.81h3.091c0.768,0,1.368,0.157,1.798,0.474c0.431,0.316,0.646,0.79,0.646,1.422
		L106.338,19.092L106.338,19.092z M109.915,27.793l-3.455-4.739c0.902-0.315,1.633-0.812,2.192-1.488
		c0.559-0.675,0.838-1.552,0.838-2.625v-0.037c0-1.377-0.467-2.451-1.404-3.222c-0.937-0.77-2.246-1.156-3.929-1.156h-6.465v13.269
		h3.111v-4.245h2.445l3.031,4.245L109.915,27.793L109.915,27.793z M93.911,25.651l-1.98-1.876c-0.553,0.48-1.108,0.86-1.667,1.138
		c-0.559,0.278-1.243,0.417-2.051,0.417c-0.606,0-1.161-0.11-1.667-0.332c-0.505-0.221-0.937-0.521-1.294-0.9
		c-0.357-0.379-0.637-0.821-0.838-1.327c-0.202-0.506-0.303-1.042-0.303-1.612v-0.037c0-0.568,0.101-1.102,0.303-1.602
		c0.203-0.5,0.485-0.938,0.849-1.317c0.364-0.379,0.798-0.676,1.303-0.891c0.505-0.214,1.054-0.323,1.646-0.323
		c0.714,0,1.357,0.132,1.93,0.399c0.572,0.264,1.135,0.632,1.687,1.1l1.98-2.142c-0.324-0.304-0.673-0.581-1.05-0.834
		c-0.378-0.253-0.788-0.467-1.233-0.644c-0.445-0.177-0.94-0.316-1.485-0.417c-0.545-0.102-1.148-0.151-1.808-0.151
		c-1.091,0-2.088,0.18-2.99,0.54c-0.902,0.36-1.678,0.853-2.324,1.478c-0.646,0.627-1.151,1.352-1.515,2.18
		s-0.545,1.715-0.545,2.663v0.037c0,0.948,0.181,1.839,0.545,2.673c0.364,0.835,0.869,1.558,1.515,2.17
		c0.646,0.613,1.414,1.096,2.303,1.451c0.889,0.354,1.853,0.531,2.889,0.531c0.687,0,1.307-0.054,1.859-0.161
		c0.553-0.107,1.062-0.265,1.526-0.474c0.465-0.209,0.893-0.459,1.283-0.748C93.17,26.347,93.548,26.018,93.911,25.651z"/>
</g>
<g>
	<path fill="#FFFFFF" d="M88.353,43.574c-0.077-1.464-0.169-3.225-0.154-4.534h-0.046c-0.354,1.23-0.785,2.54-1.308,3.988
		l-1.831,5.094h-1.015l-1.677-5.001c-0.492-1.48-0.908-2.835-1.2-4.081h-0.031c-0.031,1.308-0.108,3.069-0.2,4.642l-0.277,4.503
		h-1.277l0.723-10.5h1.708l1.769,5.078c0.431,1.293,0.785,2.446,1.046,3.537h0.046c0.261-1.059,0.631-2.212,1.092-3.537l1.846-5.078
		h1.708l0.646,10.5h-1.307L88.353,43.574z"/>
	<path fill="#FFFFFF" d="M96.154,48.185l-0.108-0.95H96c-0.415,0.592-1.215,1.121-2.277,1.121c-1.508,0-2.277-1.075-2.277-2.165
		c0-1.823,1.6-2.82,4.477-2.804v-0.156c0-0.623-0.17-1.745-1.692-1.745c-0.692,0-1.415,0.218-1.938,0.561l-0.307-0.903
		c0.615-0.405,1.508-0.67,2.446-0.67c2.277,0,2.831,1.573,2.831,3.084v2.82c0,0.654,0.031,1.292,0.123,1.807L96.154,48.185z
		 M95.954,44.337c-1.477-0.031-3.154,0.234-3.154,1.698c0,0.888,0.585,1.309,1.277,1.309c0.969,0,1.585-0.624,1.8-1.262
		c0.046-0.14,0.077-0.296,0.077-0.436V44.337z"/>
	<path fill="#FFFFFF" d="M105.877,37.124l0,9.113c0,0.67,0.016,1.433,0.062,1.947h-1.215l-0.061-1.308h-0.031
		c-0.415,0.841-1.323,1.48-2.538,1.48c-1.8,0-3.185-1.543-3.185-3.832c-0.015-2.509,1.523-4.05,3.338-4.05
		c1.138,0,1.907,0.545,2.246,1.152h0.031v-4.502L105.877,37.124z M104.523,43.714c0-0.172-0.015-0.405-0.061-0.577
		c-0.2-0.873-0.939-1.59-1.954-1.59c-1.4,0-2.231,1.246-2.231,2.914c0,1.527,0.738,2.788,2.2,2.788c0.907,0,1.738-0.608,1.984-1.636
		c0.046-0.187,0.061-0.373,0.061-0.592V43.714z"/>
	<path fill="#FFFFFF" d="M108.878,44.664c0.031,1.854,1.2,2.617,2.554,2.617c0.969,0,1.554-0.171,2.062-0.389l0.231,0.982
		c-0.477,0.218-1.292,0.467-2.477,0.467c-2.292,0-3.661-1.527-3.661-3.802c0-2.274,1.323-4.065,3.492-4.065
		c2.431,0,3.077,2.165,3.077,3.552c0,0.28-0.031,0.499-0.046,0.639L108.878,44.664z M112.847,43.682
		c0.016-0.872-0.353-2.227-1.877-2.227c-1.369,0-1.969,1.277-2.077,2.227H112.847z"/>
	<path fill="#FFFFFF" d="M119.033,48.185c0.031-0.514,0.061-1.277,0.061-1.947v-9.113h1.338v4.736h0.031
		c0.477-0.842,1.338-1.386,2.539-1.386c1.846,0,3.154,1.558,3.138,3.847c0,2.696-1.677,4.035-3.338,4.035
		c-1.077,0-1.938-0.42-2.492-1.417h-0.046l-0.062,1.246H119.033z M120.432,45.163c0,0.171,0.031,0.342,0.062,0.499
		c0.261,0.95,1.046,1.605,2.03,1.605c1.416,0,2.261-1.168,2.261-2.898c0-1.511-0.769-2.804-2.215-2.804
		c-0.923,0-1.784,0.639-2.061,1.683c-0.031,0.155-0.077,0.342-0.077,0.561V45.163z"/>
	<path fill="#FFFFFF" d="M128.233,40.645l1.631,4.456c0.17,0.499,0.354,1.09,0.477,1.542h0.031c0.138-0.452,0.292-1.028,0.477-1.573
		l1.477-4.425l1.431,0l-2.031,5.375c-0.969,2.586-1.631,3.91-2.553,4.72c-0.662,0.593-1.323,0.826-1.662,0.888l-0.338-1.152
		c0.338-0.109,0.784-0.327,1.184-0.671c0.369-0.295,0.831-0.825,1.138-1.527c0.062-0.14,0.108-0.249,0.108-0.326
		c0-0.078-0.031-0.187-0.092-0.358l-2.754-6.948H128.233z"/>
	<path fill="#FFFFFF" d="M139.879,38.48v2.165h1.939v1.043h-1.939v4.066c0,0.935,0.261,1.464,1.016,1.464
		c0.354,0,0.615-0.047,0.785-0.093l0.061,1.028c-0.262,0.109-0.677,0.187-1.2,0.187c-0.631,0-1.139-0.203-1.462-0.577
		c-0.385-0.405-0.523-1.075-0.523-1.963l0-4.113h-1.154v-1.043h1.154v-1.808L139.879,38.48z"/>
	<path fill="#FFFFFF" d="M143.341,42.998c0-0.888-0.015-1.652-0.061-2.352h1.184l0.046,1.48h0.061
		c0.338-1.012,1.154-1.651,2.061-1.651c0.154,0,0.262,0.015,0.385,0.046v1.293c-0.138-0.031-0.277-0.047-0.461-0.047
		c-0.954,0-1.631,0.733-1.816,1.761c-0.031,0.187-0.061,0.404-0.061,0.639l0,4.019h-1.338L143.341,42.998z"/>
	<path fill="#FFFFFF" d="M152.419,48.185l-0.108-0.95h-0.046c-0.415,0.592-1.215,1.121-2.277,1.121
		c-1.508,0-2.277-1.075-2.277-2.165c0-1.823,1.599-2.82,4.476-2.804v-0.156c0-0.623-0.169-1.745-1.692-1.745
		c-0.692,0-1.415,0.218-1.938,0.561l-0.308-0.903c0.616-0.405,1.508-0.67,2.447-0.67c2.277,0,2.83,1.573,2.83,3.084v2.82
		c0,0.654,0.031,1.292,0.124,1.807H152.419z M152.219,44.337c-1.477-0.031-3.154,0.234-3.154,1.698c0,0.888,0.585,1.309,1.277,1.309
		c0.969,0,1.585-0.624,1.8-1.262c0.046-0.14,0.077-0.296,0.077-0.436L152.219,44.337z"/>
	<path fill="#FFFFFF" d="M162.142,37.124l0,9.113c0,0.67,0.016,1.433,0.061,1.947h-1.215l-0.061-1.308h-0.031
		c-0.416,0.841-1.324,1.48-2.539,1.48c-1.8,0-3.185-1.543-3.185-3.832c-0.015-2.509,1.523-4.05,3.338-4.05
		c1.139,0,1.908,0.545,2.247,1.152h0.031v-4.502H162.142z M160.788,43.714c0-0.172-0.016-0.405-0.062-0.577
		c-0.2-0.873-0.938-1.59-1.953-1.59c-1.4,0-2.231,1.246-2.231,2.914c0,1.527,0.738,2.788,2.2,2.788c0.907,0,1.738-0.608,1.984-1.636
		c0.046-0.187,0.062-0.373,0.062-0.592L160.788,43.714z"/>
	<path fill="#FFFFFF" d="M165.143,44.664c0.031,1.854,1.2,2.617,2.553,2.617c0.969,0,1.554-0.171,2.061-0.389l0.231,0.982
		c-0.477,0.218-1.292,0.467-2.477,0.467c-2.292,0-3.661-1.527-3.661-3.802s1.324-4.065,3.492-4.065c2.431,0,3.077,2.165,3.077,3.552
		c0,0.28-0.032,0.499-0.046,0.639L165.143,44.664z M169.112,43.682c0.015-0.872-0.354-2.227-1.877-2.227
		c-1.369,0-1.969,1.277-2.077,2.227H169.112z"/>
	<path fill="#FFFFFF" d="M172.097,42.998c0-0.888-0.015-1.652-0.061-2.352l1.184,0l0.046,1.48h0.061
		c0.338-1.012,1.154-1.651,2.061-1.651c0.154,0,0.262,0.015,0.385,0.046v1.293c-0.138-0.031-0.277-0.047-0.461-0.047
		c-0.954,0-1.631,0.733-1.816,1.761c-0.031,0.187-0.061,0.404-0.061,0.639l0,4.019h-1.338L172.097,42.998z"/>
	<path fill="#FFFFFF" d="M176.944,46.783c0.4,0.265,1.108,0.546,1.785,0.546c0.985,0,1.445-0.499,1.445-1.121
		c0-0.655-0.385-1.013-1.384-1.387c-1.338-0.483-1.969-1.23-1.969-2.134c0-1.214,0.969-2.211,2.569-2.211
		c0.753,0,1.415,0.217,1.831,0.467l-0.339,0.997c-0.292-0.186-0.83-0.436-1.522-0.436c-0.801,0-1.246,0.467-1.246,1.028
		c0,0.623,0.446,0.903,1.416,1.277c1.292,0.499,1.953,1.153,1.953,2.274c0,1.324-1.015,2.259-2.785,2.259
		c-0.815,0-1.569-0.203-2.092-0.514L176.944,46.783z"/>
	<path fill="#FFFFFF" d="M186.62,48.185v-6.497h-1.046v-1.043h1.046v-0.358c0-1.059,0.231-2.025,0.862-2.633
		c0.507-0.499,1.184-0.702,1.815-0.702c0.477,0,0.893,0.109,1.154,0.218l-0.185,1.06c-0.2-0.094-0.477-0.172-0.861-0.172
		c-1.154,0-1.446,1.029-1.446,2.181v0.405h1.8v1.043h-1.8v6.497H186.62z"/>
	<path fill="#FFFFFF" d="M197.513,44.353c0,2.788-1.907,4.003-3.707,4.003c-2.016,0-3.57-1.496-3.57-3.879
		c0-2.524,1.631-4.003,3.692-4.003C196.067,40.474,197.513,42.047,197.513,44.353z M191.605,44.43c0,1.652,0.939,2.898,2.262,2.898
		c1.292,0,2.262-1.23,2.262-2.929c0-1.277-0.631-2.897-2.231-2.897C192.298,41.502,191.605,42.998,191.605,44.43z"/>
	<path fill="#FFFFFF" d="M199.222,42.998c0-0.888-0.015-1.652-0.061-2.352h1.184l0.046,1.48h0.061
		c0.338-1.012,1.154-1.651,2.061-1.651c0.154,0,0.262,0.015,0.385,0.046v1.293c-0.138-0.031-0.277-0.047-0.461-0.047
		c-0.954,0-1.631,0.733-1.816,1.761c-0.031,0.187-0.061,0.404-0.061,0.639v4.019h-1.338V42.998z"/>
	<path fill="#FFFFFF" d="M209.146,38.48v2.165h1.938v1.043h-1.938l0,4.066c0,0.935,0.261,1.464,1.015,1.464
		c0.354,0,0.615-0.047,0.785-0.093l0.061,1.028c-0.262,0.109-0.677,0.187-1.2,0.187c-0.631,0-1.139-0.203-1.462-0.577
		c-0.385-0.405-0.523-1.075-0.523-1.963l0-4.113h-1.154v-1.043h1.154v-1.808L209.146,38.48z"/>
	<path fill="#FFFFFF" d="M212.608,42.998c0-0.888-0.015-1.652-0.061-2.352h1.184l0.046,1.48h0.061
		c0.338-1.012,1.154-1.651,2.061-1.651c0.154,0,0.262,0.015,0.385,0.046v1.293c-0.138-0.031-0.277-0.047-0.461-0.047
		c-0.954,0-1.631,0.733-1.816,1.761c-0.031,0.187-0.061,0.404-0.061,0.639v4.019h-1.338V42.998z"/>
	<path fill="#FFFFFF" d="M221.686,48.185l-0.108-0.95h-0.046c-0.415,0.592-1.215,1.121-2.277,1.121
		c-1.508,0-2.277-1.075-2.277-2.165c0-1.823,1.599-2.82,4.476-2.804v-0.156c0-0.623-0.169-1.745-1.692-1.745
		c-0.692,0-1.415,0.218-1.938,0.561l-0.308-0.903c0.616-0.405,1.508-0.67,2.447-0.67c2.277,0,2.83,1.573,2.83,3.084v2.82
		c0,0.654,0.031,1.292,0.124,1.807H221.686z M221.486,44.337c-1.477-0.031-3.154,0.234-3.154,1.698c0,0.888,0.585,1.309,1.277,1.309
		c0.969,0,1.585-0.624,1.8-1.262c0.046-0.14,0.077-0.296,0.077-0.436V44.337z"/>
	<path fill="#FFFFFF" d="M231.409,37.124v9.113c0,0.67,0.016,1.433,0.061,1.947h-1.215l-0.061-1.308h-0.031
		c-0.416,0.841-1.324,1.48-2.539,1.48c-1.8,0-3.185-1.543-3.185-3.832c-0.015-2.509,1.523-4.05,3.338-4.05
		c1.139,0,1.908,0.545,2.247,1.152h0.031v-4.502H231.409z M230.055,43.714c0-0.172-0.016-0.405-0.062-0.577
		c-0.2-0.873-0.938-1.59-1.953-1.59c-1.4,0-2.231,1.246-2.231,2.914c0,1.527,0.738,2.788,2.2,2.788c0.907,0,1.738-0.608,1.984-1.636
		c0.046-0.187,0.062-0.373,0.062-0.592V43.714z"/>
	<path fill="#FFFFFF" d="M234.41,44.664c0.031,1.854,1.2,2.617,2.553,2.617c0.969,0,1.554-0.171,2.061-0.389l0.231,0.982
		c-0.477,0.218-1.292,0.467-2.477,0.467c-2.292,0-3.661-1.527-3.661-3.802s1.324-4.065,3.492-4.065c2.431,0,3.077,2.165,3.077,3.552
		c0,0.28-0.032,0.499-0.046,0.639L234.41,44.664z M238.379,43.682c0.015-0.872-0.354-2.227-1.877-2.227
		c-1.369,0-1.969,1.277-2.077,2.227H238.379z"/>
	<path fill="#FFFFFF" d="M241.364,42.997c0-0.888-0.015-1.652-0.061-2.352l1.184,0l0.046,1.48h0.061
		c0.338-1.012,1.154-1.651,2.061-1.651c0.154,0,0.262,0.015,0.385,0.046v1.293c-0.138-0.031-0.277-0.047-0.461-0.047
		c-0.954,0-1.631,0.733-1.816,1.761c-0.031,0.187-0.061,0.404-0.061,0.639v4.019h-1.338V42.997z"/>
	<path fill="#FFFFFF" d="M246.21,46.782c0.4,0.265,1.108,0.546,1.785,0.546c0.985,0,1.445-0.499,1.445-1.121
		c0-0.655-0.385-1.013-1.384-1.387c-1.338-0.483-1.969-1.23-1.969-2.134c0-1.214,0.969-2.211,2.569-2.211
		c0.753,0,1.415,0.217,1.831,0.467l-0.339,0.997c-0.292-0.186-0.83-0.436-1.522-0.436c-0.801,0-1.246,0.467-1.246,1.028
		c0,0.623,0.446,0.903,1.416,1.277c1.292,0.499,1.953,1.153,1.953,2.274c0,1.324-1.015,2.259-2.785,2.259
		c-0.815,0-1.569-0.203-2.092-0.514L246.21,46.782z"/>
</g>
</svg>
