<?xml version="1.0" encoding="UTF-8"?>
<svg width="177px" height="36px" viewBox="0 0 177 36" version="1.1" xmlns="http://www.w3.org/2000/svg" xmlns:xlink="http://www.w3.org/1999/xlink">
    <!-- Generator: Sketch 47.1 (45422) - http://www.bohemiancoding.com/sketch -->
    <title>Group 6</title>
    <desc>Created with Sketch.</desc>
    <defs>
        <path d="M61.7472222,2.53807186 C61.7472222,2.04593291 61.9348618,1.62499462 62.3113138,1.2755418 C62.6871794,0.92637377 63.1530533,0.751504954 63.7089357,0.751504954 C64.2645249,0.751504954 64.7303988,0.92637377 65.1068508,1.2755418 C65.4827164,1.62499462 65.6706492,2.04593291 65.6706492,2.53807186 L65.6706492,16.1160373 C65.6706492,16.6084611 65.4827164,17.0293994 65.1068508,17.3785674 C64.7303988,17.7274506 64.2645249,17.9026042 63.7089357,17.9026042 C63.1530533,17.9026042 62.6871794,17.7274506 62.3113138,17.3785674 C61.9348618,17.0293994 61.7472222,16.6084611 61.7472222,16.1160373 L61.7472222,2.53807186 Z" id="path-1"></path>
        <filter x="-280.4%" y="-40.8%" width="660.7%" height="228.3%" filterUnits="objectBoundingBox" id="filter-2">
            <feOffset dx="0" dy="4" in="SourceAlpha" result="shadowOffsetOuter1"></feOffset>
            <feGaussianBlur stdDeviation="3" in="shadowOffsetOuter1" result="shadowBlurOuter1"></feGaussianBlur>
            <feColorMatrix values="0 0 0 0 0   0 0 0 0 0   0 0 0 0 0  0 0 0 0.20533288 0" type="matrix" in="shadowBlurOuter1"></feColorMatrix>
        </filter>
        <path d="M82.3454486,4.77721863 C82.0672143,4.77721863 81.7485201,4.71399245 81.389073,4.58668567 C80.7839352,4.38048857 80.1055007,4.27710521 79.3537695,4.27710521 C77.9640637,4.27710521 76.8156506,4.72168212 75.9082372,5.61083593 C75.0011169,6.50055936 74.5472636,7.739166 74.5472636,9.32694067 C74.5472636,10.8039271 75.029556,12.0149079 75.9941409,12.9595982 C76.9587258,13.9045734 78.2091679,14.3770609 79.7460536,14.3770609 C80.4488226,14.3770609 81.1029226,14.2659879 81.7077671,14.0435571 C82.1003444,13.884922 82.484126,13.8051772 82.8602848,13.8051772 C83.5140916,13.8051772 83.988468,14.0834294 84.2828276,14.6390794 C84.4297143,14.9250212 84.5033042,15.2029886 84.5033042,15.4726967 C84.5033042,16.1718871 84.1025177,16.7195626 83.3018243,17.1162926 C82.206478,17.6722274 80.8985713,17.9501947 79.3783972,17.9501947 C76.7133284,17.9501947 74.5472636,17.1604371 72.8799097,15.5800672 C71.2122627,13.9999822 70.3787323,11.9155118 70.3787323,9.32694067 C70.3787323,6.81811429 71.1633004,4.75329521 72.7327299,3.13362264 C74.3021593,1.51366528 76.5092703,0.703971395 79.3537695,0.703971395 C80.7596007,0.703971395 81.9039092,0.92640225 82.7866949,1.37097916 C83.6530622,1.81555607 84.0863924,2.36351633 84.0863924,3.01457514 C84.0863924,3.31618113 84.0045933,3.61807192 83.8412882,3.91967791 C83.4979663,4.49127679 82.9989622,4.77721863 82.3454486,4.77721863" id="path-3"></path>
        <filter x="-77.9%" y="-40.6%" width="255.8%" height="227.6%" filterUnits="objectBoundingBox" id="filter-4">
            <feOffset dx="0" dy="4" in="SourceAlpha" result="shadowOffsetOuter1"></feOffset>
            <feGaussianBlur stdDeviation="3" in="shadowOffsetOuter1" result="shadowBlurOuter1"></feGaussianBlur>
            <feColorMatrix values="0 0 0 0 0   0 0 0 0 0   0 0 0 0 0  0 0 0 0.20533288 0" type="matrix" in="shadowBlurOuter1"></feColorMatrix>
        </filter>
        <path d="M95.6607953,4.27696281 C94.2221272,4.27696281 93.0370658,4.7414759 92.1050247,5.67050209 C91.1732767,6.59952827 90.7074027,7.81848353 90.7074027,9.32708307 C90.7074027,10.7562227 91.189402,11.9555266 92.1542801,12.9238555 C93.1185718,13.8927541 94.2875079,14.3769185 95.6607953,14.3769185 C97.2302248,14.3769185 98.44783,13.9047158 99.3144904,12.9597406 C100.180858,12.0150503 100.614188,10.8037847 100.614188,9.32708307 C100.614188,7.83443248 100.139812,6.61946445 99.1919383,5.6824638 C98.2437719,4.74546314 97.0666265,4.27696281 95.6607953,4.27696281 M95.6607953,17.9500523 C92.9960196,17.9500523 90.8091386,17.1639971 89.1010317,15.5918866 C87.3926317,14.019776 86.5385783,11.9316031 86.5385783,9.32708307 C86.5385783,6.86553393 87.3847157,4.81296136 89.0766972,3.16936538 C90.7686788,1.52576939 92.9634759,0.703828993 95.6607953,0.703828993 C98.3252778,0.703828993 100.511866,1.48988426 102.220559,3.06199478 C103.928666,4.63439011 104.783012,6.72256301 104.783012,9.32708307 C104.783012,11.8364791 103.920457,13.9004437 102.195931,15.5204011 C100.47082,17.1400737 98.2927341,17.9500523 95.6607953,17.9500523" id="path-5"></path>
        <filter x="-60.3%" y="-40.6%" width="220.6%" height="227.6%" filterUnits="objectBoundingBox" id="filter-6">
            <feOffset dx="0" dy="4" in="SourceAlpha" result="shadowOffsetOuter1"></feOffset>
            <feGaussianBlur stdDeviation="3" in="shadowOffsetOuter1" result="shadowBlurOuter1"></feGaussianBlur>
            <feColorMatrix values="0 0 0 0 0   0 0 0 0 0   0 0 0 0 0  0 0 0 0.20533288 0" type="matrix" in="shadowBlurOuter1"></feColorMatrix>
        </filter>
    </defs>
    <g id="Updates" stroke="none" stroke-width="1" fill="none" fill-rule="evenodd">
        <g id="Contribute-options" transform="translate(-14.000000, -61.000000)">
            <g id="Group-7-Copy-3" transform="translate(0.000000, 50.000000)">
                <g id="Group-6" transform="translate(14.000000, 11.000000)">
                    <g id="Logo" transform="translate(0.000000, 3.000000)">
                        <g id="Text" transform="translate(35.000000, 5.000000)">
                            <path d="M8.92790255,16.4732368 L3.94988226,9.73195849 L3.94988226,16.1158095 C3.94988226,16.6082332 3.76165627,17.0291715 3.38579067,17.3783395 C3.00963189,17.7275076 2.54375791,17.9023764 1.98816875,17.9023764 C1.43228639,17.9023764 0.966412416,17.7275076 0.59025363,17.3783395 C0.214094844,17.0291715 0.0264552308,16.6082332 0.0264552308,16.1158095 L0.0264552308,2.53812882 C0.0264552308,2.04598988 0.214094844,1.62505159 0.59025363,1.27559876 C0.966412416,0.92643073 1.43228639,0.751561914 1.98816875,0.751561914 C2.54375791,0.751561914 3.00963189,0.92643073 3.38579067,1.27559876 C3.76165627,1.62505159 3.94988226,2.04598988 3.94988226,2.53812882 L3.94988226,8.25497205 L8.87894034,1.82355902 C9.43101126,1.10870441 10.064295,0.751561914 10.7790846,0.751561914 C11.3311555,0.751561914 11.7536378,0.897665664 12.0471179,1.18987316 C12.340598,1.48236547 12.4874846,1.84976086 12.4874846,2.29205935 C12.4874846,2.78191988 12.3238864,3.22393356 11.996983,3.61895481 L7.81672422,8.67448632 L12.5877546,14.890019 C12.8492773,15.2061499 12.9800386,15.5857918 12.9800386,16.0283751 C12.9800386,16.5347542 12.8132153,16.9739198 12.4789822,17.3453024 C12.1447492,17.7164003 11.7011574,17.9023764 11.1482069,17.9023764 C10.7254314,17.9023764 10.3466339,17.7952906 10.0132804,17.5808342 C9.67992694,17.3663778 9.31784112,16.9972736 8.92790255,16.4732368" id="Fill-1" fill="#FFFFFF"></path>
                            <path d="M17.5102746,2.53807186 C17.5102746,2.04593291 17.6979142,1.62499462 18.0743662,1.2755418 C18.4502318,0.92637377 18.9161057,0.751504954 19.4719881,0.751504954 C20.0275773,0.751504954 20.4934512,0.92637377 20.8699032,1.2755418 C21.2457688,1.62499462 21.4337016,2.04593291 21.4337016,2.53807186 L21.4337016,16.1160373 C21.4337016,16.6084611 21.2457688,17.0293994 20.8699032,17.3785674 C20.4934512,17.7274506 20.0275773,17.9026042 19.4719881,17.9026042 C18.9161057,17.9026042 18.4502318,17.7274506 18.0743662,17.3785674 C17.6979142,17.0293994 17.5102746,16.6084611 17.5102746,16.1160373 L17.5102746,2.53807186 Z" id="Fill-3" fill="#FFFFFF"></path>
                            <path d="M38.1084424,4.77721863 C37.830208,4.77721863 37.5115139,4.71399245 37.1520667,4.58668567 C36.5472222,4.38048857 35.8684945,4.27710521 35.1167633,4.27710521 C33.7270574,4.27710521 32.5786444,4.72168212 31.6715241,5.61083593 C30.7641107,6.50055936 30.3105505,7.739166 30.3105505,9.32694067 C30.3105505,10.8039271 30.7925498,12.0149079 31.7571347,12.9595982 C32.7217196,13.9045734 33.9721617,14.3770609 35.5090474,14.3770609 C36.2118164,14.3770609 36.8659163,14.2659879 37.4707609,14.0435571 C37.8633381,13.884922 38.2471198,13.8051772 38.6235718,13.8051772 C39.2770853,13.8051772 39.7514617,14.0834294 40.0458214,14.6390794 C40.192708,14.9250212 40.2662979,15.2029886 40.2662979,15.4726967 C40.2662979,16.1718871 39.8655114,16.7195626 39.064818,17.1162926 C37.9694718,17.6722274 36.6615651,17.9501947 35.141391,17.9501947 C32.4763221,17.9501947 30.3105505,17.1604371 28.6429035,15.5800672 C26.9755496,13.9999822 26.1417261,11.9155118 26.1417261,9.32694067 C26.1417261,6.81811429 26.9262942,4.75329521 28.4957237,3.13362264 C30.0651531,1.51366528 32.2722641,0.703971395 35.1167633,0.703971395 C36.5225945,0.703971395 37.6669029,0.92640225 38.5499819,1.37097916 C39.4160559,1.81555607 39.8493862,2.36351633 39.8493862,3.01457514 C39.8493862,3.31618113 39.767587,3.61807192 39.6042819,3.91967791 C39.2609601,4.49127679 38.7622492,4.77721863 38.1084424,4.77721863" id="Fill-5" fill="#FFFFFF"></path>
                            <path d="M53.1648795,16.4732368 L48.1868592,9.73195849 L48.1868592,16.1158095 C48.1868592,16.6082332 47.9986332,17.0291715 47.6227676,17.3783395 C47.2466088,17.7275076 46.7807348,17.9023764 46.2251457,17.9023764 C45.6692633,17.9023764 45.2033893,17.7275076 44.8272305,17.3783395 C44.4510718,17.0291715 44.2634321,16.6082332 44.2634321,16.1158095 L44.2634321,2.53812882 C44.2634321,2.04598988 44.4510718,1.62505159 44.8272305,1.27559876 C45.2033893,0.92643073 45.6692633,0.751561914 46.2251457,0.751561914 C46.7807348,0.751561914 47.2466088,0.92643073 47.6227676,1.27559876 C47.9986332,1.62505159 48.1868592,2.04598988 48.1868592,2.53812882 L48.1868592,8.25497205 L53.1159173,1.82355902 C53.6679882,1.10870441 54.3012719,0.751561914 55.0157683,0.751561914 C55.5681324,0.751561914 55.9906148,0.897665664 56.2840948,1.18987316 C56.5775749,1.48236547 56.7244616,1.84976086 56.7244616,2.29205935 C56.7244616,2.78191988 56.5608633,3.22393356 56.2339599,3.61895481 L52.0537011,8.67448632 L56.8247315,14.890019 C57.0862542,15.2061499 57.2170155,15.5857918 57.2170155,16.0283751 C57.2170155,16.5347542 57.0501922,16.9739198 56.7159591,17.3453024 C56.3817261,17.7164003 55.9381343,17.9023764 55.3851838,17.9023764 C54.9621151,17.9023764 54.5836109,17.7952906 54.2502574,17.5808342 C53.9169039,17.3663778 53.554818,16.9972736 53.1648795,16.4732368" id="Fill-7" fill="#FFFFFF"></path>
                            <g id="Fill-9">
                                <use fill="black" fill-opacity="1" filter="url(#filter-2)" xlink:href="#path-1"></use>
                                <use fill="#E47D32" fill-rule="evenodd" xlink:href="#path-1"></use>
                            </g>
                            <g id="Fill-11">
                                <use fill="black" fill-opacity="1" filter="url(#filter-4)" xlink:href="#path-3"></use>
                                <use fill="#E47D32" fill-rule="evenodd" xlink:href="#path-3"></use>
                            </g>
                            <g id="Fill-13">
                                <use fill="black" fill-opacity="1" filter="url(#filter-6)" xlink:href="#path-5"></use>
                                <use fill="#E47D32" fill-rule="evenodd" xlink:href="#path-5"></use>
                            </g>
                        </g>
                        <g id="Sign" fill="#FFFFFF">
                            <g id="Group-17" transform="translate(0.000000, 0.243582)">
                                <path d="M13.8948819,1.97808924 C10.6949662,1.97808924 7.68644304,3.23022529 5.42370042,5.50383292 C3.16095781,7.77744055 1.91483966,10.8004845 1.91483966,14.0157984 C1.91483966,17.2311124 3.16095781,20.2541563 5.42370042,22.527764 C7.68644304,24.801074 10.6949662,26.05321 13.8948819,26.05321 C17.0947975,26.05321 20.1033207,24.801074 22.3660633,22.527764 C24.6288059,20.2541563 25.8749241,17.2311124 25.8749241,14.0157984 C25.8749241,10.8004845 24.6288059,7.77744055 22.3660633,5.50383292 C20.1033207,3.23022529 17.0947975,1.97808924 13.8948819,1.97808924 M13.8948819,27.9773982 C12.0196498,27.9773982 10.1996498,27.6080374 8.4859789,26.8797329 C6.83137975,26.1764295 5.34543038,25.1701371 4.06977637,23.8882379 C2.793827,22.6063387 1.79226582,21.1131211 1.09226582,19.4505511 C0.367455696,17.7287524 2.9535865e-05,15.900104 2.9535865e-05,14.0157984 C2.9535865e-05,12.1311953 0.367455696,10.3028445 1.09226582,8.58104582 C1.79226582,6.91817818 2.793827,5.42525818 4.06977637,4.14335897 C5.34543038,2.86145976 6.83137975,1.85486976 8.4859789,1.15156634 C10.1996498,0.423261868 12.0196498,0.0541987105 13.8948819,0.0541987105 C15.7701139,0.0541987105 17.5901139,0.423261868 19.3037848,1.15156634 C20.958384,1.85486976 22.4443333,2.86145976 23.7199873,4.14335897 C24.9959367,5.42525818 25.9974979,6.91817818 26.6974979,8.58104582 C27.422308,10.3028445 27.7897342,12.1311953 27.7897342,14.0157984 C27.7897342,15.900104 27.422308,17.7287524 26.6974979,19.4505511 C25.9974979,21.1131211 24.9959367,22.6063387 23.7199873,23.8882379 C22.4443333,25.1701371 20.958384,26.1764295 19.3037848,26.8797329 C17.5901139,27.6080374 15.7701139,27.9773982 13.8948819,27.9773982" id="Fill-15"></path>
                            </g>
                            <path d="M15.8718945,13.8932635 C15.539616,13.8932635 15.216789,13.7194467 15.0398692,13.4087193 C14.7772954,12.947688 14.9364937,12.3598656 15.395481,12.0961641 L23.6519367,7.34983326 C24.1109241,7.08613168 24.6960295,7.24595984 24.9586034,7.70728879 C25.2211772,8.16832011 25.0619789,8.75614247 24.6029916,9.01984405 L16.3465359,13.7661748 C16.1964937,13.8521904 16.0331603,13.8932635 15.8718945,13.8932635" id="Fill-18"></path>
                            <path d="M15.871038,13.8931147 L15.8683797,13.8931147 C15.3396878,13.8916266 14.9123038,13.4597631 14.9134852,12.9284908 L14.9282532,7.36218497 C14.9294346,6.8318055 15.358,6.40262076 15.8855105,6.40262076 L15.8881688,6.40262076 C16.4168608,6.40410892 16.8442447,6.83597234 16.8430633,7.36724471 L16.8282954,12.9335505 C16.8271139,13.46393 16.3985485,13.8931147 15.871038,13.8931147" id="Fill-20"></path>
                            <path d="M20.6626118,16.493879 C20.5090253,16.493879 20.3530759,16.456675 20.2086456,16.3781003 L15.4161561,13.7776932 C14.9506709,13.525004 14.7772954,12.9413484 15.0286456,12.4740669 C15.2797004,12.0064877 15.8606709,11.8320756 16.3258608,12.0847648 L21.1183502,14.6851719 C21.5835401,14.9375634 21.757211,15.521219 21.5058608,15.9887982 C21.3327806,16.3108356 21.0031603,16.493879 20.6626118,16.493879" id="Fill-22"></path>
                            <path d="M13.9100338,27.8973651 C13.3828186,27.8973651 12.9542532,27.4687756 12.9527764,26.9383961 L12.9223544,16.2897335 C12.9205823,15.7584611 13.3479662,15.3263001 13.8766582,15.3245143 L13.8796118,15.3245143 C14.4071224,15.3245143 14.8353924,15.7531037 14.8371646,16.2834832 L14.8675865,26.9321458 C14.8690633,27.4634182 14.4419747,27.8955793 13.9132827,27.8973651 L13.9100338,27.8973651 Z" id="Fill-24"></path>
                            <path d="M9.09072574,20.045338 C8.76081013,20.045338 8.43975527,19.8739022 8.26194937,19.5664488 C7.99642194,19.1072033 8.15148523,18.5181904 8.60870042,18.2515125 L13.3985316,15.4546686 C13.8557468,15.1879907 14.4417384,15.3439496 14.7075612,15.8031951 C14.9730886,16.2627383 14.81773,16.8514536 14.3608101,17.1184291 L9.5709789,19.9149754 C9.41945992,20.003372 9.25405907,20.045338 9.09072574,20.045338" id="Fill-26"></path>
                            <path d="M18.4933207,20.2062674 C18.3169916,20.2062674 18.1388903,20.1574558 17.9793966,20.0550706 L13.3647131,17.0975056 C12.9190169,16.8120769 12.788173,16.2171114 13.0726034,15.7691758 C13.3567384,15.3212403 13.9486371,15.1896872 14.3946287,15.4754135 L19.0090169,18.4329785 C19.4550084,18.7187048 19.5858523,19.3136703 19.3014219,19.7616058 C19.1188903,20.0491179 18.8093544,20.2062674 18.4933207,20.2062674" id="Fill-28"></path>
                            <path d="M12.7957932,13.4087193 C13.0583671,12.947688 12.8991688,12.3598656 12.4401814,12.0961641 L3.64587764,7.05845195 C3.1868903,6.79445274 2.60208017,6.95457853 2.33950633,7.41560984 C2.07693249,7.87693879 2.2361308,8.46476116 2.69511814,8.72846274 L11.4891266,13.7661748 C11.6391688,13.8521904 11.8025021,13.8932635 11.9637679,13.8932635 C12.2960464,13.8932635 12.6188734,13.7194467 12.7957932,13.4087193 Z" id="Fill-30"></path>
                            <path d="M11.9645949,13.8931147 L11.9672532,13.8931147 C12.4959451,13.8916266 12.9233291,13.4597631 12.9221477,12.9284908 L12.9073797,7.36218497 C12.9061983,6.8318055 12.4776329,6.40262076 11.9501224,6.40262076 L11.9474641,6.40262076 C11.4187722,6.40410892 10.9913882,6.83597234 10.9925696,7.36724471 L11.0073376,12.9335505 C11.008519,13.46393 11.4370844,13.8931147 11.9645949,13.8931147" id="Fill-32"></path>
                            <path d="M7.17305063,16.493879 C7.32663713,16.493879 7.4825865,16.456675 7.62701688,16.3781003 L12.4195063,13.7776932 C12.8849916,13.525004 13.0583671,12.9413484 12.8070169,12.4740669 C12.555962,12.0064877 11.9749916,11.8320756 11.5098017,12.0847648 L6.71731224,14.6851719 C6.25212236,14.9375634 6.07845148,15.521219 6.32980169,15.9887982 C6.50288186,16.3108356 6.83250211,16.493879 7.17305063,16.493879" id="Fill-34"></path>
                        </g>
                    </g>
                    <path d="M146.066406,9 L146.066406,0.46875 L148.802734,0.46875 C149.708989,0.46875 150.409177,0.657224678 150.90332,1.03417969 C151.397463,1.4111347 151.644531,1.99023047 151.644531,2.77148438 C151.644531,3.16211133 151.526368,3.50585789 151.290039,3.80273438 C151.05371,4.09961086 150.742189,4.31835867 150.355469,4.45898438 L150.355469,4.4765625 C150.86719,4.58203178 151.267577,4.82909962 151.556641,5.21777344 C151.845705,5.60644726 151.990234,6.06640359 151.990234,6.59765625 C151.990234,7.39062896 151.74219,7.98925579 151.246094,8.39355469 C150.749998,8.79785358 150.062504,9 149.183594,9 L146.066406,9 Z M147.150391,4.98632812 L147.150391,8.12695312 L149.183594,8.12695312 C149.734378,8.12695312 150.159178,7.99707161 150.458008,7.73730469 C150.756837,7.47753776 150.90625,7.10156496 150.90625,6.609375 C150.90625,6.09765369 150.780275,5.69922018 150.52832,5.4140625 C150.276366,5.12890482 149.882815,4.98632812 149.347656,4.98632812 L147.150391,4.98632812 Z M147.150391,4.11328125 L149.095703,4.11328125 C149.544924,4.10156244 149.901366,3.97949335 150.165039,3.74707031 C150.428712,3.51464728 150.560547,3.18164279 150.560547,2.74804688 C150.560547,2.27148199 150.413087,1.91894646 150.118164,1.69042969 C149.823241,1.46191292 149.384769,1.34765625 148.802734,1.34765625 L147.150391,1.34765625 L147.150391,4.11328125 Z M159.665513,5.02734375 L155.728013,5.02734375 L155.728013,8.12695312 L160.26317,8.12695312 L160.26317,9 L154.644029,9 L154.644029,0.46875 L160.204576,0.46875 L160.204576,1.34765625 L155.728013,1.34765625 L155.728013,4.1484375 L159.665513,4.1484375 L159.665513,5.02734375 Z M168.442355,1.34765625 L165.752902,1.34765625 L165.752902,9 L164.668917,9 L164.668917,1.34765625 L161.979464,1.34765625 L161.979464,0.46875 L168.442355,0.46875 L168.442355,1.34765625 Z M175.039509,6.7265625 L171.447712,6.7265625 L170.609821,9 L169.5024,9 L172.795368,0.46875 L173.732868,0.46875 L176.973103,9 L175.865681,9 L175.039509,6.7265625 Z M171.769978,5.85351562 L174.723103,5.85351562 L173.258259,1.81054688 L171.769978,5.85351562 Z" id="BETA" fill="#FFFFFF" opacity="0.6"></path>
                </g>
            </g>
        </g>
    </g>
</svg>