<svg xmlns="http://www.w3.org/2000/svg" viewBox="0 0 480.38 116.7"><path fill="#676867" d="M20.17 37.66L0 115.08h8.59l17.56-71.13h.26l14.96 71.13h8.85l51.39-70.04h.26l-19.12 70.04h8.72l19.9-77.42H98.49l-51 69.5-14.44-69.5H20.17zm99.56 21.47l-14.45 55.95h8.2l14.44-55.95h-8.19zm19.97-.01l-14.27 55.96h8.19l5.21-20.28 14.31-9.97 17.83 30.25h8.97l-20.29-34.37 31.74-21.58h-10.93l-39.29 27.32-.26-.21 7-27.12h-8.21z"/><path d="M196.22 59.13l-14.44 55.95H190l7.55-29.27c2.73-10.52 10.54-20.38 25.24-20.6 1.56 0 3.12.11 4.68.11l1.82-6.83c-1.43-.11-3-.11-4.42-.11-12-.11-19.13 5.64-24.33 13.66h-.26l3.38-12.9zm89.92 20.28c0-13.77-10.93-21.9-26.54-21.9-23.94 0-37.47 17.57-37.47 35.89 0 14 9.5 23.31 26.8 23.31 24.85 0 37.21-18.43 37.21-37.3m-8.2 1.41c0 13-9.5 30.14-27.45 30.14-13.66 0-20.17-7.37-20.17-18.21 0-13.12 9.89-29.49 27.84-29.49 13.14 0 19.78 7.16 19.78 17.56m86.86-21.73l5.33-21.44h-80.15l-5.3 21.47h25.71v.01h28.67v-.01l25.74-.03zm-56.95 10.29l-11.36 45.68h28.62l11.39-45.67v-.02h-28.65v.01zm61.55 0l-11.31 45.68h25.76l11.31-45.68zm28.35-10.29l5.35-21.44h-25.76l-5.39 21.47zm16.02-21.44l-19.26 77.41h25.76l4.03-16.04 5.86-4.34 9.11 20.38h27.97l-17.18-33.61 30.32-22.66h-30.83l-19 16.48h-.26l9.24-37.62h-25.76zM130.8 0c3.15 21.86 14.88 35.13 38.79 36.22C147.06 44.84 123.84 24.58 130.8 0" fill="#676867" fill-rule="evenodd"/><path d="M118.3 3.85c.27-.06.3.12.32.32.76 13.94 6.64 24.51 14.43 31.74s18.25 13.08 33 12.82c-27.62 11-56.65-15.43-47.76-44.88" fill="#676867" fill-rule="evenodd"/></svg>