<svg xmlns="http://www.w3.org/2000/svg" width="246" height="38" viewBox="0 0 246 38"><path fill="#727D83" d="M197.902 13.355c-1.268 1.74-1.902 3.67-1.902 5.76V38h8V19.355c0-.476.098-.918.318-1.3.22-.376.54-.758.947-1.108a3.792 3.792 0 0 1 2.54-.946h6.735l.46-6h-6.725c-2.594 0-4.832.122-6.006.407-1.832.448-3.29 1.43-4.368 2.948zM180 10h-8v28h8"/><path fill="#3498DB" d="M172 0v7h8V0"/><path fill="#727D83" d="M169.02 10h-10.767L146.35 24.436 158.19 38h10.86l-12.918-13.85"/><path fill="#F39C12" d="M192 38v-7h-8v7"/><path fill="#727D83" d="M246 10h-8v22h-7.193c-.92 0-1.807-.295-2.6-.958-.79-.667-1.207-1.435-1.207-2.353V10h-8v19.29c0 2.15.632 4.09 1.865 5.763 1.105 1.485 2.566 2.283 4.402 2.723 1.11.255 20.733.016 20.733.016V10zM92.958 16c.54.156.762.42 1.266 1.02.38.47.63.874.792 1.228.155.34.252.78.252 1.255V21H82c-2.243 0-3.668.464-5.15 2.098-1.485 1.598-2.405 3.71-2.405 6.193 0 2.35.822 5.14 2.433 6.676C78.488 37.51 80.475 38 82.782 38H103V22.06c0-2.226-.223-4.045-.634-5.458-.38-1.412-1.173-2.73-2.407-3.954-.945-.915-2.08-1.522-3.406-1.96C95.254 10.214 93.688 10 91 10H76l.5 6h16.458zm-7.915 10.948L95 26.932 95.035 32H84.958c-.79 0-1.286.05-1.917-.46-.6-.5-1-1.13-1-1.916 0-.877.414-1.595 1.043-2.125.668-.537 1.96-.552 1.96-.552zM67.954 14.3c-2.248-2.865-5.1-4.3-8.485-4.3H49V0h-8v38h18.37c3.52 0 6.37-1.207 8.615-4.227 2.06-2.795 3.107-6.097 3.107-9.928 0-3.672-1.047-6.878-3.138-9.545zm-11.747 1.632c1.995 0 3.613.813 4.906 2.486 1.302 1.658 1.935 3.58 1.935 5.74 0 2.1-.604 3.992-1.804 5.593-1.173 1.598-2.726 2.42-4.658 2.42H49V15.93h7.207zM145.984 0H138v38h7.984M133.84 19.065c0-2.08-.635-4-1.896-5.73-1.078-1.51-2.533-2.485-4.37-2.93-1.172-.284-3.074-.405-5.67-.405H107v28h7.905V16h7.473c.95 0 1.808.312 2.533.94.414.35.73.73.953 1.103.22.38.314.82.314 1.293V38h7.66l.003-18.935z"/><path fill="#3498DB" d="M34 8V0H18v8"/><path fill="#6CB44D" d="M34 23v-8H9v8"/><path fill="#F39C12" d="M0 30v8h34v-8"/></svg>