<?xml version="1.0" encoding="UTF-8" standalone="no"?>
<svg width="250px" height="106px" viewBox="0 0 250 106" version="1.1" xmlns="http://www.w3.org/2000/svg" xmlns:xlink="http://www.w3.org/1999/xlink">
    <!-- Generator: Sketch 3.6.1 (26313) - http://www.bohemiancoding.com/sketch -->
    <title>bankir_logo</title>
    <desc>Created with Sketch.</desc>
    <defs></defs>
    <g id="-Карточка-банка" stroke="none" stroke-width="1" fill="none" fill-rule="evenodd">
        <g id="Logo-Copy">
            <path d="M70.5,96 L249.5,96 L249.5,100 L70.5,100 L70.5,96 Z" id="Fill-2" fill="#1F3E63"></path>
            <path d="M70.5122435,103 L249.5,103 L249.5,105 L70.5,105 L70.5122435,103 Z" id="Fill-3" fill="#ABB10B"></path>
            <path d="M22.7872727,11.0076268 L21.7027273,12.7675068 L22.5590909,19.2369887 L22.7872727,21.6763905 L22.4445455,22.4147258 L31.1681818,60.104208 L41.0890909,57.8349128 L41.8863636,50.3420765 L35.1818182,27.6690308 L34.4754545,25.7616647 L35.5018182,14.3563754 L35.5018182,11.6310496 L22.7872727,11.0076268" id="Fill-4" fill="#FFFFFF"></path>
            <path d="M42.4590909,31.9235069 L62.3545455,50.2072579 L60.1381818,58.6465387 L42.4072727,50.4814192 L38.0918182,34.4624392" id="Fill-5" fill="#1F3E63"></path>
            <path d="M63.8818182,59.4138283 L53.7854545,101.080006 L54.0645455,102.119647 L55.07,101.655473 L66.0654545,59.0491848 L68.1990909,57.6430904 L68.2381818,54.4409231 L65.3509091,53.6718238 L63.2345455,55.3050287 L63.5436364,58.4719079 L63.8818182,59.4138283" id="Fill-6" fill="#1F3E63"></path>
            <path d="M62.1554545,50.7492467 L65.2518182,51.3301428 L68.0345455,52.7045684 L68.6863636,54.5268812 L68.4581818,57.2666842 L67.8663636,58.3814257 L66.5427273,58.6365856 L67.0836364,57.2838758 L66.1563636,55.5375681 L63.8536364,55.3692711 L64.7872727,57.1219125 L66.3509091,57.8385321 L66.5427273,58.6365856 L64.6772727,58.7433547 L62.2318182,57.5444647 L60.6363636,56.4007689 L62.1554545,50.7492467 L62.1554545,50.7492467 Z" id="Fill-7" fill="#FFFFFF"></path>
            <path d="M62.1554545,50.7492467 L65.2518182,51.3301428 L68.0345455,52.7045684 L68.6863636,54.5268812 L68.4581818,57.2666842 L67.8663636,58.3814257 L66.5427273,58.6365856 L67.0836364,57.2838758 L66.1563636,55.5375681 L63.8536364,55.3692711 L64.7872727,57.1219125 L66.3509091,57.8385321 L66.5427273,58.6365856 L64.6772727,58.7433547 L62.2318182,57.5444647 L60.6363636,56.4007689 L62.1554545,50.7492467 L62.1554545,50.7492467 Z" id="Stroke-8" stroke="#1F3E63" stroke-width="0.344"></path>
            <path d="M63.4463636,58.1407428 L60.2154545,56.8993262 L60.1281818,56.2876661 L63.4463636,58.1407428" id="Fill-9" fill="#1F3E63"></path>
            <path d="M53.8872727,55.4136074 L57.1418182,45.7980572 L61.9545455,50.6488114 L59.8836364,58.0556895 L53.8872727,55.4136074" id="Fill-10" fill="#FFFFFF"></path>
            <path d="M35.5872727,12.1829914 L22.4445455,12.4327224 L35.9154545,13.64428 L38.5809091,11.9142591 L39.99,13.7139513 L35.55,15.2774848 L34.6509091,26.2520786 L32.9372727,27.0582756 L25.9136364,24.3021858 L33.4254545,26.2520786 L33.3481818,22.5911662 L33.9981818,21.0457291 L30.7281818,21.9360746 L29.9136364,20.4784053 L31.2963636,20.9624855 L34.4872727,19.1854138 L33.1827273,16.5750005 L33.1827273,14.9526535 L24.3618182,13.8171011 L25.26,17.6309285 L23.7881818,16.1678303 L22.5690909,17.2246631 L23.8763636,20.3155373 L22.7263636,22.0274617 L21.4254545,17.5105871 L17.5009091,13.5619411 L18.8854545,11.6192869 L22.1581818,11.8599697 L21.26,0.566878366 L36.3527273,0.156088888 L35.5872727,12.1829914" id="Fill-11" fill="#1F3E63"></path>
            <path d="M35.1818182,27.6690308 L42.4072727,31.8167378 L44.0054545,70.8408334 L41.3081818,71.7013197 L40.57,93.6423639 L39.5754545,94.5833794 L42.0063636,98.355585 L45.6736364,102.907748 L44.0418182,103.967295 L38.9790909,102.260799 L35.55,99.5816197 L35.55,100.713553 L32.6918182,99.2495498 L31.9590909,94.9416892 L31.5436364,94.8620648 L28.0336364,72.919211 L26.7645455,72.919211 L22.0363636,94.3110278 L21.5536364,94.7960127 L20.8218182,97.723114 L19.43,100.163421 L19.43,98.8007577 L16.9009091,102.865221 L13.2872727,105.938904 L11.6518182,105.286526 L12.49,99.5988113 L13.7936364,94.6376688 L12.9763636,93.4134437 L12.3536364,71.9338591 L10.3145455,71.6135519 L8.84545455,57.9597783 L1.08090909,46.6558291 L10.4781818,28.6896708 L22.7263636,22.0274617 L31.6645455,58.9378916 L36.0727273,53.0836891 L40.3018182,57.1662489 L41.2163636,52.2051063 L35.1818182,27.6690308" id="Fill-12" fill="#1F3E63"></path>
            <path d="M30.4863636,27.2727185 L27.6290909,31.6140576 L29.3418182,35.350975 L31.63,29.9871864 L35.55,33.9684061 L35.7927273,31.1254533 L31.63,27.6301235 L30.4863636,27.2727185" id="Fill-13" fill="#1F3E63"></path>
            <path d="M32.1272727,15.7588505 L32.22,15.2774848 L28.8445455,15.1091878 L28.7081818,17.3920553 L31.8372727,17.4716797 L32.1272727,16.251074 L33.2572727,16.251074 L33.2572727,15.6810357 L32.1272727,15.7588505 L32.1272727,15.7588505 Z M31.3518182,17.1296568 L29.1545455,17.0002671 L29.3518182,15.4801651 L31.6190909,15.6403187 L31.3518182,17.1296568 L31.3518182,17.1296568 Z" id="Fill-14" fill="#1F3E63"></path>
            <path d="M32.1272727,15.7588505 L32.22,15.2774848 L28.8445455,15.1091878 L28.7081818,17.3920553 L31.8372727,17.4716797 L32.1272727,16.251074 L33.2572727,16.251074 L33.2572727,15.6810357 L32.1272727,15.7588505 L32.1272727,15.7588505 Z M31.3518182,17.1296568 L29.1545455,17.0002671 L29.3518182,15.4801651 L31.6190909,15.6403187 L31.3518182,17.1296568 L31.3518182,17.1296568 Z" id="Stroke-15" stroke="#1F3E63" stroke-width="0.189"></path>
            <path d="M14.2009091,95.2013733 L15.2681818,96.5848471 L19.6754545,95.2855218 L15.0463636,97.0834044 L14.2009091,95.2013733" id="Fill-16" fill="#FFFFFF"></path>
            <path d="M34.4081818,95.590447 L38.6481818,96.2021071 L39.4672727,94.7779163 L38.4063636,95.590447 L34.4081818,95.590447" id="Fill-17" fill="#FFFFFF"></path>
            <path d="M33.5181818,36.4141416 C33.5181818,36.7344489 33.2572727,36.9923233 32.9372727,36.9923233 C32.6154545,36.9923233 32.3572727,36.7344489 32.3572727,36.4141416 C32.3572727,36.0947393 32.6154545,35.8287214 32.9372727,35.8287214 C33.2572727,35.8287214 33.5181818,36.0947393 33.5181818,36.4141416" id="Fill-18" fill="#1F3E63"></path>
            <path d="M34.8672727,42.7605676 C34.8672727,43.0844941 34.6081818,43.3414638 34.2836364,43.3414638 C33.96,43.3414638 33.6990909,43.0844941 33.6990909,42.7605676 C33.6990909,42.4420701 33.96,42.1796715 34.2836364,42.1796715 C34.6081818,42.1796715 34.8672727,42.4420701 34.8672727,42.7605676" id="Fill-19" fill="#1F3E63"></path>
            <path d="M36.2090909,49.1033743 C36.2090909,49.4236815 35.9481818,49.6761271 35.6327273,49.6761271 C35.3072727,49.6761271 35.0472727,49.4236815 35.0472727,49.1033743 C35.0472727,48.778543 35.3072727,48.5242878 35.6327273,48.5242878 C35.9481818,48.5242878 36.2090909,48.778543 36.2090909,49.1033743" id="Fill-20" fill="#1F3E63"></path>
            <path d="M13.7545455,45.742863 L15.7590909,50.7003863 L18.9172727,55.3285541 L17.7981818,56.5808286 L19.9072727,61.6966958 L21.6890909,63.4068106 L28.13,61.1800421 L23.2845455,41.5924416 L13.7545455,45.742863" id="Fill-21" fill="#ABB10B"></path>
            <path d="M21.8309091,41.6304442 L26.8318182,60.1431153 L21.2727273,42.2982033" id="Fill-22" fill="#1F3E63"></path>
            <path d="M17.7009091,64.7749024 L6.83727273,68.1598439 L0.517272727,50.8171084 L3.12636364,49.7485129 L8.84,57.9597783 L12.6518182,62.7707203 L14.5936364,61.0488428 L17.7009091,64.7749024" id="Fill-23" fill="#ABB10B"></path>
            <path d="M15.7327273,51.3174753 L8.70636364,57.9516349 L12.6218182,63.0874082 L14.3227273,61.4342972 L15.8654545,64.0836179 L17.9536364,65.3250346 L19.8654545,65.4960461 L19.8881818,64.9359608 L17.9836364,64.567698 L16.9527273,63.302756 L18.5763636,64.5007412 L20.8663636,64.950438 L20.9472727,64.2102931 L19.0836364,63.4629096 L17.8318182,62.1409637 L19.5336364,63.4212878 L21.37,64.1261446 L22.33,64.1053337 L22.7290909,63.2276557 L22.2836364,63.3787611 L20.6609091,62.2604003 L19.1990909,59.4011608 L21.0754545,60.4788045 L22.1654545,60.6823896 L22.9436364,59.9431495 L20.9472727,58.4845754 L19.2845455,57.1264367 L18.0354545,56.4568679 L18.8218182,55.4669919 L15.7327273,51.3174753 L15.7327273,51.3174753 Z" id="Fill-24" fill="#FFFFFF"></path>
            <path d="M15.7327273,51.3174753 L8.70636364,57.9516349 L12.6218182,63.0874082 L14.3227273,61.4342972 L15.8654545,64.0836179 L17.9536364,65.3250346 L19.8654545,65.4960461 L19.8881818,64.9359608 L17.9836364,64.567698 L16.9527273,63.302756 L18.5763636,64.5007412 L20.8663636,64.950438 L20.9472727,64.2102931 L19.0836364,63.4629096 L17.8318182,62.1409637 L19.5336364,63.4212878 L21.37,64.1261446 L22.33,64.1053337 L22.7290909,63.2276557 L22.2836364,63.3787611 L20.6609091,62.2604003 L19.1990909,59.4011608 L21.0754545,60.4788045 L22.1654545,60.6823896 L22.9436364,59.9431495 L20.9472727,58.4845754 L19.2845455,57.1264367 L18.0354545,56.4568679 L18.8218182,55.4669919 L15.7327273,51.3174753 L15.7327273,51.3174753 Z" id="Stroke-25" stroke="#1F3E63" stroke-width="0.344"></path>
            <path d="M12.0945455,58.114503 C12.0945455,58.5641998 11.7345455,58.9216048 11.2872727,58.9216048 C10.8418182,58.9216048 10.4809091,58.5641998 10.4809091,58.114503 C10.4809091,57.6783785 10.8418182,57.3173542 11.2872727,57.3173542 C11.7345455,57.3173542 12.0945455,57.6783785 12.0945455,58.114503" id="Fill-26" fill="#1F3E63"></path>
            <path d="M35.5872727,15.6403187 L33.7554545,15.4801651 L33.6309091,16.204928 L33.8236364,17.2499982 L35.5263636,17.2246631 L35.5872727,15.6403187" id="Fill-27" fill="#FFFFFF"></path>
            <path d="M33.5609091,15.2982957 L33.4972727,16.4537542 L33.7627273,17.2843814 L35.7172727,17.3694348 L35.3145752,17.0081177 L33.9136364,16.8808305 L33.8927273,15.6611296 L35.4500732,15.7425537 L35.3059692,16.9970703 L35.7172727,17.3694348 L35.9154545,15.2982957 L33.5609091,15.2982957 Z" id="Fill-28" fill="#1F3E63"></path>
            <path d="M67.3872727,53.2863694 L68.2381818,54.4409231 L68.4581818,57.2666842" id="Fill-29" fill="#FFFFFF"></path>
            <path d="M67.3872727,53.2863694 L68.2381818,54.4409231 L68.4581818,57.2666842" id="Stroke-30" stroke="#1F3E63" stroke-width="0.344"></path>
            <path d="M57,54.829092 C57,55.2652165 56.6481818,55.614478 56.2063636,55.614478 C55.7763636,55.614478 55.4254545,55.2652165 55.4254545,54.829092 C55.4254545,54.3938723 55.7763636,54.0437059 56.2063636,54.0437059 C56.6481818,54.0437059 57,54.3938723 57,54.829092" id="Fill-31" fill="#1F3E63"></path>
            <path d="M14.3718182,61.4342972 L18.09,56.4568679" id="Fill-32" fill="#FFFFFF"></path>
            <path d="M14.3718182,61.4342972 L18.09,56.4568679" id="Stroke-33" stroke="#00324F" stroke-width="0.344"></path>
            <path d="M190.767273,75.403854 C193.196364,74.4221214 194.45,72.4568466 194.45,69.848243 C194.45,66.2959093 191.07,63.8782232 187.425455,64.4075444 C185.793636,64.5966524 184.617273,64.5966524 183.210909,64.5966524 C183.161818,64.5939379 178.504545,64.6002717 178.504545,64.6002717 L178.504545,65.7186324 L180.136364,65.7186324 C180.590909,65.7186324 181.046364,65.8054954 181.274545,66.1068013 C182.072727,66.8243257 182.149091,69.2067237 182.149091,71.2470988 L182.149091,83.1500406 C182.149091,85.1153153 181.767273,86.0970479 180.364545,86.0970479 L178.237273,86.0970479 L178.237273,87.0932576 L188.83,87.0932576 L188.83,86.0889045 L187.501818,86.0889045 C185.261818,86.0138042 184.769091,84.7678634 184.769091,82.9175011 L184.769091,76.2724837 L187.653636,76.2724837 C188.275455,77.2234523 189.078182,78.3970072 190.002727,79.6719023 C191.718182,81.7900921 195.392727,85.9649438 200.367273,89.652096 L200.637273,89.499181 C196.536364,85.1904156 193.120909,80.1270281 190.767273,75.403854 L190.767273,75.403854 Z M186.323636,75.2527486 C185.869091,75.1776483 185.337273,75.1776483 184.844545,75.1007384 L184.844545,65.955696 C184.882727,65.955696 186.323636,65.8796909 187.046364,65.8796909 C190.918182,65.8796909 191.867273,69.394022 191.867273,70.7557801 C191.867273,73.551682 189.704545,75.1776483 186.323636,75.2527486 L186.323636,75.2527486 Z M107.736364,79.2964009 C106.239091,75.1170252 102.739091,64.9323416 102.552727,64.3822094 L99.2190909,65.3033188 C98.8081818,70.1070222 95.9490909,77.637861 93.5754545,83.5653541 C92.9681818,85.1153153 91.8681818,86.030091 90.2336364,86.1051913 C90.2227273,86.1024768 90.2127273,86.0997624 90.2018182,86.0970479 L89.4363636,86.0970479 L89.4363636,87.1122589 L98.4718182,87.1122589 L98.4718182,86.1124299 L97.0272727,86.1124299 C97.0154545,86.1133347 97.0036364,86.1160492 96.9927273,86.116954 C95.8909091,86.0409489 94.92,85.8699374 94.9027273,85.0013077 C94.8963636,84.6791908 94.97,84.4140778 95.1309091,84.0204799 L97.0690909,78.995095 L104.623636,78.995095 L106.483636,84.5488964 C106.539091,84.703621 106.559091,84.8818711 106.559091,85.0700742 C106.559091,85.9776113 105.609091,86.0852852 105.000909,86.0852852 L104.942727,86.0825707 L104.942727,86.0834755 L102.99,86.0834755 L102.99,87.1122589 L112.937273,87.1122589 L112.937273,86.0970479 L111.229091,86.0970479 C109.825455,86.0970479 109.230909,83.4757767 107.736364,79.2964009 L107.736364,79.2964009 Z M97.5990909,77.5962392 C97.5990909,77.5962392 99.4736364,72.3410293 100.635455,67.506562 C101.774545,70.954841 104.090909,77.5962392 104.090909,77.5962392 L97.5990909,77.5962392 L97.5990909,77.5962392 Z M172.695455,83.1057042 L172.695455,69.2067237 C172.695455,69.0565231 172.693636,68.955183 172.693636,68.7543124 C172.693636,67.1265365 173.037273,65.7059649 174.821818,65.7059649 L176.378182,65.7059649 L176.378182,64.6726575 L166.353636,64.6726575 L166.353636,65.7186324 L167.797273,65.7186324 C168.366364,65.7186324 168.822727,65.7620639 169.126364,65.8371642 C170.076364,65.9882696 170.076364,67.3391698 170.076364,69.1886272 L170.076364,83.2260457 C170.076364,84.7000017 169.696364,86.0653791 168.062727,86.0653791 L166.353636,86.0653791 L166.353636,87.0986865 L176.604545,87.0986865 L176.604545,86.0970479 L174.821818,86.0970479 C172.695455,86.0970479 172.695455,85.1840818 172.695455,83.1057042 L172.695455,83.1057042 Z M83.21,74.8745327 C83.0581818,74.8745327 82.9827273,74.6474222 82.9063636,74.4972217 C82.9827273,74.271016 83.0581818,74.1199106 83.1336364,74.1199106 C85.1063636,73.174371 85.8672727,71.1719985 85.8672727,69.6211325 C85.8672727,66.1068013 82.2981818,64.1071433 79.1863636,64.4075444 C77.3245455,64.4826447 75.9963636,64.5966524 74.1363636,64.6726575 C74.1045455,64.669943 74.0690909,64.6672285 74.0363636,64.6654189 L70.3027273,64.6654189 L70.3027273,65.7294903 L71.7818182,65.7294903 C72.5036364,65.7294903 72.8836364,65.8054954 73.1118182,66.1068013 C73.9454545,66.8243257 74.1363636,69.2067237 74.1363636,71.2470988 L74.1363636,84.0910561 C74.1363636,85.3360921 73.6436364,86.1486228 72.3136364,86.1486228 L70.3027273,86.1486228 L70.3027273,87.0986865 L74.5527273,87.0986865 L74.5527273,87.1122589 C76.7263636,87.1556904 78.2336364,87.5945294 80.6654545,87.5945294 C85.5636364,87.5176194 87.9554545,84.4204115 87.7281818,80.4889572 C87.6527273,78.2223765 86.6654545,75.4789542 83.21,74.8745327 L83.21,74.8745327 Z M76.6036364,66.0317011 L78.1618182,66.0317011 C80.5136364,66.0317011 82.7545455,67.0532458 82.9063636,69.9993483 C83.0581818,72.3808415 81.1209091,74.4972217 78.7309091,74.4972217 L76.6036364,74.4972217 L76.6036364,66.0317011 L76.6036364,66.0317011 Z M80.2863636,86.2725835 C78.3136364,86.2725835 76.6036364,85.8789856 76.6036364,84.1788239 L76.6036364,75.8182627 L79.0345455,75.8182627 C82.2981818,75.8182627 84.9190909,77.6179549 84.9954545,81.3204892 C85.0309091,84.6457124 82.9827273,86.1965784 80.2863636,86.2725835 L80.2863636,86.2725835 Z M159.332727,67.506562 C160.395455,66.220809 160.889091,65.8371642 162.444545,65.8371642 L163.051818,65.8371642 L163.051818,64.7613301 L154.434545,64.7613301 L154.434545,65.8054954 L155.648182,65.8054954 C156.599091,65.8054954 156.978182,66.2959093 156.978182,66.9781455 C156.978182,67.506562 156.826364,67.9978807 156.446364,68.3760965 L150.370909,75.9693681 C151.763636,77.69396 153.233636,79.3398324 154.734545,80.9549408 C156.842727,83.0233654 160.536364,86.7584732 165.195455,89.5905681 L165.558182,89.4077939 C161.040909,85.0628356 157.131818,79.9008225 153.56,74.7234273 L159.332727,67.506562 L159.332727,67.506562 Z M132.255455,64.7314709 L132.230909,65.7367289 L134.654545,65.7367289 C135.601818,65.7367289 136.133636,66.1448039 136.133636,67.9218756 L136.857273,82.7718247 C130.046364,73.551682 122.199091,66.0724181 120.694545,64.6654189 L117.615455,64.6654189 C117.587273,64.6672285 117.559091,64.669943 117.530909,64.6726575 C117.505455,64.669943 117.478182,64.6672285 117.45,64.6654189 L114.455455,64.6654189 L114.455455,65.7294903 L116.050909,65.7294903 C117.530909,65.7294903 117.796364,66.4470147 117.796364,67.9218756 L117.796364,83.2821447 C117.796364,84.8321058 117.644545,86.0789514 115.747273,86.0789514 L114.417273,86.0789514 L114.417273,87.1231168 L123.833636,87.1231168 L123.833636,86.0970479 L122.200909,86.0970479 C119.81,86.0970479 119.581818,84.1715853 119.581818,82.0162978 L119.505455,67.8467753 L119.546364,67.8947309 C119.609091,67.9544492 129.768182,77.8875921 137.312727,88.10123 L138.184545,88.10123 L138.260909,67.6576673 C138.260909,66.4470147 138.563636,65.7059649 139.893636,65.7059649 L141.603636,65.7059649 L141.603636,64.7314709 L132.255455,64.7314709 L132.255455,64.7314709 Z M149.84,83.2631434 L149.84,80.6192516 L149.84,68.3009962 C149.84,67.3509325 149.915455,66.5221149 150.599091,66.1068013 C151.13,65.8796909 151.701818,65.7186324 152.308182,65.7186324 L153.104545,65.7186324 L153.104545,64.6654189 L143.765455,64.6654189 L143.765455,65.7186324 L145.018182,65.7186324 C145.473636,65.7186324 145.853636,65.8054954 146.081818,65.8796909 C146.955455,66.1068013 147.107273,67.4260327 147.107273,69.276395 L147.107273,83.2260457 C147.107273,84.7000017 146.88,86.0653791 145.093636,86.0653791 L143.386364,86.0653791 L143.386364,87.1231168 L153.711818,87.1231168 L153.711818,86.0970479 L151.55,86.0970479 C149.991818,86.0970479 149.84,84.6791908 149.84,83.2631434 L149.84,83.2631434 Z" id="Fill-34" fill="#1F3E63"></path>
            <path d="M222.695455,69.848243 C222.695455,66.2959093 219.318182,63.8782232 215.671818,64.4075444 C214.188182,64.5803656 213.073636,64.5930331 211.83,64.5939379 L211.83,64.6002717 L206.749091,64.6002717 L206.749091,65.7186324 L208.383636,65.7186324 C208.838182,65.7186324 209.294545,65.8054954 209.522727,66.1068013 C210.318182,66.8243257 210.394545,69.2067237 210.394545,71.2470988 L210.394545,83.1500406 C210.394545,85.1153153 210.016364,86.0970479 208.610909,86.0970479 L206.482727,86.0970479 L206.482727,87.0932576 L217.076364,87.0932576 L217.076364,86.0889045 L215.747273,86.0889045 C213.507273,86.0138042 213.013636,84.6810005 213.013636,82.8288285 L213.013636,76.2724837 L215.899091,76.2724837 C216.495455,77.1809256 217.251818,78.2902382 218.121818,79.5008909 C219.772727,81.5593624 223.510909,85.8608892 228.620909,89.6484767 L228.883636,89.499181 C224.784545,85.1904156 221.366364,80.1270281 219.011818,75.403854 C221.442727,74.4221214 222.695455,72.4568466 222.695455,69.848243 L222.695455,69.848243 Z M214.571818,75.2527486 C214.114545,75.1776483 213.583636,75.1776483 213.09,75.1007384 L213.09,67.6965747 C213.082727,67.7725798 213.06,67.8313933 213.06,67.914637 L213.06,65.8588799 L215.271818,65.8588799 C215.271818,65.8588799 215.150909,65.8615944 214.979091,65.884215 C215.093636,65.8833102 215.199091,65.8796909 215.291818,65.8796909 C219.166364,65.8796909 220.114545,69.394022 220.114545,70.7557801 C220.114545,73.551682 217.95,75.1776483 214.571818,75.2527486 L214.571818,75.2527486 Z M240.556364,64.7450433 L240.556364,65.7937327 L242.188182,65.7937327 C244.05,65.7937327 244.999091,65.8796909 244.999091,70.7557801 L244.999091,77.2940284 C244.999091,83.7164595 242.34,86.3232535 237.746364,86.1721482 C233.721818,86.0970479 230.837273,83.7915598 230.837273,78.4277712 L230.837273,69.2067237 C230.837273,67.2043512 230.837273,65.7186324 232.849091,65.7186324 L234.559091,65.7186324 L234.559091,64.6726575 L225.180909,64.6726575 L225.180909,65.7294903 L226.092727,65.7294903 C228.179091,65.5792897 228.179091,67.3554566 228.179091,70.6788701 L228.179091,78.5797814 C228.179091,86.0210428 232.241818,87.7981144 237.519091,87.9510295 C242.985455,88.10123 246.935455,85.1153153 246.935455,77.9735502 L246.935455,69.2067237 C246.935455,67.1292509 247.010909,65.7937327 248.795455,65.7937327 L249.896364,65.7937327 L249.896364,64.7450433 L240.556364,64.7450433 L240.556364,64.7450433 Z" id="Fill-35" fill="#ABB10B"></path>
        </g>
        <path d="M203,87 C204.104569,87 205,86.1045695 205,85 C205,83.8954305 204.104569,83 203,83 C201.895431,83 201,83.8954305 201,85 C201,86.1045695 201.895431,87 203,87 Z" id="Oval-46" fill="#ABB10B"></path>
    </g>
</svg>